<svg width="276" height="88" viewBox="0 0 276 88" fill="none" xmlns="http://www.w3.org/2000/svg">
<g filter="url(#filter0_d_1_11108)">
<rect x="23" y="18" width="41.7571" height="41.7571" rx="20.8785" fill="#E3B873"/>
<rect x="19" y="14" width="49.7571" height="49.7571" rx="24.8785" stroke="white" stroke-width="8"/>
</g>
<path d="M38.1042 45.1323C37.1322 45.1323 36.2502 44.8743 35.4582 44.3583C34.6662 43.8423 34.0362 43.0923 33.5682 42.1083C33.1122 41.1123 32.8842 39.9303 32.8842 38.5623C32.8842 37.1943 33.1122 36.0183 33.5682 35.0343C34.0362 34.0383 34.6662 33.2823 35.4582 32.7663C36.2502 32.2503 37.1322 31.9923 38.1042 31.9923C39.0762 31.9923 39.9582 32.2503 40.7502 32.7663C41.5422 33.2823 42.1662 34.0383 42.6222 35.0343C43.0902 36.0183 43.3242 37.1943 43.3242 38.5623C43.3242 39.9303 43.0902 41.1123 42.6222 42.1083C42.1662 43.0923 41.5422 43.8423 40.7502 44.3583C39.9582 44.8743 39.0762 45.1323 38.1042 45.1323ZM38.1042 44.7723C39.4842 44.7723 40.1742 42.7023 40.1742 38.5623C40.1742 34.4223 39.4842 32.3523 38.1042 32.3523C36.7242 32.3523 36.0342 34.4223 36.0342 38.5623C36.0342 42.7023 36.7242 44.7723 38.1042 44.7723ZM48.3628 44.8623V44.5923L49.6228 44.2323V41.5323H44.4928L44.1328 40.9923L50.8828 32.0823H52.5928V40.7223H54.4828V41.5323H52.5928V44.2323L53.8528 44.5923V44.8623H48.3628ZM45.1228 40.7223H49.6228V34.7823L45.1228 40.7223Z" fill="white"/>
<path d="M87.03 27.862V32.426C86.638 32.6313 86.1247 32.7993 85.49 32.93C84.8647 33.0513 84.23 33.112 83.586 33.112C82.606 33.112 81.7613 32.9113 81.052 32.51C80.3427 32.1087 79.7967 31.53 79.414 30.774C79.0407 30.018 78.854 29.1127 78.854 28.058C78.854 27.0127 79.0407 26.112 79.414 25.356C79.7873 24.6 80.324 24.0213 81.024 23.62C81.724 23.2187 82.55 23.018 83.502 23.018C84.1927 23.018 84.8273 23.1253 85.406 23.34C85.9847 23.5453 86.4793 23.8533 86.89 24.264L86.456 25.146C85.98 24.7353 85.5087 24.4413 85.042 24.264C84.5847 24.0867 84.0713 23.998 83.502 23.998C82.3913 23.998 81.5373 24.348 80.94 25.048C80.3427 25.748 80.044 26.7513 80.044 28.058C80.044 29.3927 80.3473 30.41 80.954 31.11C81.5607 31.8007 82.4473 32.146 83.614 32.146C84.4633 32.146 85.252 32.02 85.98 31.768V28.758H83.53V27.862H87.03ZM94.8929 29.766H89.9089C89.9462 30.5593 90.1609 31.1613 90.5529 31.572C90.9449 31.9733 91.5002 32.174 92.2189 32.174C93.0122 32.174 93.7402 31.9033 94.4029 31.362L94.7809 32.188C94.4822 32.468 94.0995 32.692 93.6329 32.86C93.1662 33.0187 92.6902 33.098 92.2049 33.098C91.1409 33.098 90.3009 32.7853 89.6849 32.16C89.0782 31.5347 88.7749 30.6713 88.7749 29.57C88.7749 28.87 88.9102 28.254 89.1809 27.722C89.4515 27.1807 89.8295 26.7607 90.3149 26.462C90.8095 26.1633 91.3695 26.014 91.9949 26.014C92.9002 26.014 93.6095 26.3127 94.1229 26.91C94.6362 27.498 94.8929 28.31 94.8929 29.346V29.766ZM92.0089 26.896C91.4115 26.896 90.9309 27.0827 90.5669 27.456C90.2122 27.8293 90.0022 28.3567 89.9369 29.038H93.8989C93.8802 28.3473 93.7075 27.82 93.3809 27.456C93.0542 27.0827 92.5969 26.896 92.0089 26.896ZM99.5187 32.188C99.724 32.188 99.9293 32.174 100.135 32.146L100.079 33.042C99.864 33.0793 99.6307 33.098 99.3787 33.098C98.5573 33.098 97.9367 32.8833 97.5167 32.454C97.106 32.0247 96.9007 31.4273 96.9007 30.662V27.078H95.5707V26.182H96.9007V24.11H98.0347V26.182H99.9667V27.078H98.0347V30.578C98.0347 31.6513 98.5293 32.188 99.5187 32.188ZM107.662 26.014C108.53 26.014 109.174 26.238 109.594 26.686C110.023 27.1247 110.238 27.7967 110.238 28.702V33H109.132V31.838C108.955 32.2393 108.684 32.552 108.32 32.776C107.956 32.9907 107.536 33.098 107.06 33.098C106.621 33.098 106.215 33.0093 105.842 32.832C105.478 32.6547 105.189 32.4073 104.974 32.09C104.759 31.7727 104.652 31.4227 104.652 31.04C104.652 30.5267 104.783 30.13 105.044 29.85C105.305 29.5607 105.735 29.3553 106.332 29.234C106.929 29.1033 107.76 29.038 108.824 29.038H109.132V28.576C109.132 28.0067 109.015 27.596 108.782 27.344C108.549 27.0827 108.171 26.952 107.648 26.952C106.864 26.952 106.085 27.1947 105.31 27.68L104.932 26.854C105.287 26.602 105.711 26.4013 106.206 26.252C106.71 26.0933 107.195 26.014 107.662 26.014ZM107.214 32.202C107.774 32.202 108.231 32.0153 108.586 31.642C108.95 31.2593 109.132 30.7693 109.132 30.172V29.766H108.88C108.059 29.766 107.433 29.8033 107.004 29.878C106.575 29.9433 106.267 30.06 106.08 30.228C105.903 30.3867 105.814 30.6247 105.814 30.942C105.814 31.306 105.945 31.6093 106.206 31.852C106.477 32.0853 106.813 32.202 107.214 32.202ZM118.807 33.098C118.135 33.098 117.552 32.9533 117.057 32.664C116.562 32.3747 116.18 31.9687 115.909 31.446C115.648 30.914 115.517 30.2933 115.517 29.584C115.517 28.8747 115.652 28.254 115.923 27.722C116.203 27.1807 116.59 26.7607 117.085 26.462C117.589 26.1633 118.177 26.014 118.849 26.014C119.306 26.014 119.754 26.098 120.193 26.266C120.632 26.4247 120.986 26.6393 121.257 26.91L120.879 27.75C120.235 27.2273 119.582 26.966 118.919 26.966C118.219 26.966 117.673 27.1947 117.281 27.652C116.889 28.1093 116.693 28.7533 116.693 29.584C116.693 30.4053 116.889 31.04 117.281 31.488C117.673 31.936 118.219 32.16 118.919 32.16C119.582 32.16 120.235 31.8987 120.879 31.376L121.257 32.216C120.968 32.4867 120.604 32.7013 120.165 32.86C119.726 33.0187 119.274 33.098 118.807 33.098ZM125.45 33.098C124.806 33.098 124.237 32.9533 123.742 32.664C123.257 32.3747 122.879 31.964 122.608 31.432C122.347 30.8907 122.216 30.2653 122.216 29.556C122.216 28.8467 122.347 28.226 122.608 27.694C122.879 27.1527 123.257 26.7373 123.742 26.448C124.237 26.1587 124.806 26.014 125.45 26.014C126.094 26.014 126.664 26.1587 127.158 26.448C127.653 26.7373 128.031 27.1527 128.292 27.694C128.563 28.226 128.698 28.8467 128.698 29.556C128.698 30.2653 128.563 30.8907 128.292 31.432C128.031 31.964 127.653 32.3747 127.158 32.664C126.664 32.9533 126.094 33.098 125.45 33.098ZM125.45 32.16C126.122 32.16 126.636 31.9407 126.99 31.502C127.354 31.054 127.536 30.4053 127.536 29.556C127.536 28.7253 127.354 28.086 126.99 27.638C126.626 27.1807 126.113 26.952 125.45 26.952C124.788 26.952 124.274 27.1807 123.91 27.638C123.546 28.086 123.364 28.7253 123.364 29.556C123.364 30.396 123.542 31.04 123.896 31.488C124.26 31.936 124.778 32.16 125.45 32.16ZM132.698 33.098C131.55 33.098 130.64 32.804 129.968 32.216L130.346 31.376C130.71 31.6653 131.079 31.8753 131.452 32.006C131.835 32.1273 132.264 32.188 132.74 32.188C133.244 32.188 133.627 32.104 133.888 31.936C134.159 31.7587 134.294 31.5067 134.294 31.18C134.294 30.9093 134.205 30.6947 134.028 30.536C133.851 30.3773 133.557 30.2513 133.146 30.158L131.998 29.892C131.419 29.7613 130.976 29.5373 130.668 29.22C130.36 28.9027 130.206 28.5107 130.206 28.044C130.206 27.4373 130.444 26.9473 130.92 26.574C131.396 26.2007 132.031 26.014 132.824 26.014C133.3 26.014 133.753 26.0933 134.182 26.252C134.611 26.4013 134.971 26.6207 135.26 26.91L134.882 27.736C134.257 27.204 133.571 26.938 132.824 26.938C132.348 26.938 131.975 27.0313 131.704 27.218C131.443 27.3953 131.312 27.6473 131.312 27.974C131.312 28.2447 131.391 28.464 131.55 28.632C131.718 28.7907 131.984 28.912 132.348 28.996L133.51 29.276C134.145 29.4253 134.616 29.654 134.924 29.962C135.232 30.2607 135.386 30.6527 135.386 31.138C135.386 31.7353 135.143 32.2113 134.658 32.566C134.182 32.9207 133.529 33.098 132.698 33.098ZM140.042 32.188C140.247 32.188 140.453 32.174 140.658 32.146L140.602 33.042C140.387 33.0793 140.154 33.098 139.902 33.098C139.081 33.098 138.46 32.8833 138.04 32.454C137.629 32.0247 137.424 31.4273 137.424 30.662V27.078H136.094V26.182H137.424V24.11H138.558V26.182H140.49V27.078H138.558V30.578C138.558 31.6513 139.053 32.188 140.042 32.188ZM151.125 29.766H146.141C146.179 30.5593 146.393 31.1613 146.785 31.572C147.177 31.9733 147.733 32.174 148.451 32.174C149.245 32.174 149.973 31.9033 150.635 31.362L151.013 32.188C150.715 32.468 150.332 32.692 149.865 32.86C149.399 33.0187 148.923 33.098 148.437 33.098C147.373 33.098 146.533 32.7853 145.917 32.16C145.311 31.5347 145.007 30.6713 145.007 29.57C145.007 28.87 145.143 28.254 145.413 27.722C145.684 27.1807 146.062 26.7607 146.547 26.462C147.042 26.1633 147.602 26.014 148.227 26.014C149.133 26.014 149.842 26.3127 150.355 26.91C150.869 27.498 151.125 28.31 151.125 29.346V29.766ZM148.241 26.896C147.644 26.896 147.163 27.0827 146.799 27.456C146.445 27.8293 146.235 28.3567 146.169 29.038H150.131C150.113 28.3473 149.94 27.82 149.613 27.456C149.287 27.0827 148.829 26.896 148.241 26.896ZM155.106 33.098C153.958 33.098 153.048 32.804 152.376 32.216L152.754 31.376C153.118 31.6653 153.487 31.8753 153.86 32.006C154.243 32.1273 154.672 32.188 155.148 32.188C155.652 32.188 156.035 32.104 156.296 31.936C156.567 31.7587 156.702 31.5067 156.702 31.18C156.702 30.9093 156.613 30.6947 156.436 30.536C156.259 30.3773 155.965 30.2513 155.554 30.158L154.406 29.892C153.827 29.7613 153.384 29.5373 153.076 29.22C152.768 28.9027 152.614 28.5107 152.614 28.044C152.614 27.4373 152.852 26.9473 153.328 26.574C153.804 26.2007 154.439 26.014 155.232 26.014C155.708 26.014 156.161 26.0933 156.59 26.252C157.019 26.4013 157.379 26.6207 157.668 26.91L157.29 27.736C156.665 27.204 155.979 26.938 155.232 26.938C154.756 26.938 154.383 27.0313 154.112 27.218C153.851 27.3953 153.72 27.6473 153.72 27.974C153.72 28.2447 153.799 28.464 153.958 28.632C154.126 28.7907 154.392 28.912 154.756 28.996L155.918 29.276C156.553 29.4253 157.024 29.654 157.332 29.962C157.64 30.2607 157.794 30.6527 157.794 31.138C157.794 31.7353 157.551 32.2113 157.066 32.566C156.59 32.9207 155.937 33.098 155.106 33.098ZM162.45 32.188C162.656 32.188 162.861 32.174 163.066 32.146L163.01 33.042C162.796 33.0793 162.562 33.098 162.31 33.098C161.489 33.098 160.868 32.8833 160.448 32.454C160.038 32.0247 159.832 31.4273 159.832 30.662V27.078H158.502V26.182H159.832V24.11H160.966V26.182H162.898V27.078H160.966V30.578C160.966 31.6513 161.461 32.188 162.45 32.188ZM164.212 26.182H165.346V33H164.212V26.182ZM165.472 23.228V24.502H164.1V23.228H165.472ZM175.054 26.014C176.566 26.014 177.322 26.9147 177.322 28.716V33H176.188V28.772C176.188 28.1467 176.076 27.6893 175.852 27.4C175.637 27.1107 175.287 26.966 174.802 26.966C174.233 26.966 173.785 27.1573 173.458 27.54C173.131 27.9227 172.968 28.4453 172.968 29.108V33H171.834V28.772C171.834 28.1373 171.722 27.68 171.498 27.4C171.274 27.1107 170.919 26.966 170.434 26.966C169.865 26.966 169.417 27.1573 169.09 27.54C168.763 27.9227 168.6 28.4453 168.6 29.108V33H167.466V26.182H168.586V27.26C168.791 26.8587 169.076 26.5507 169.44 26.336C169.804 26.1213 170.224 26.014 170.7 26.014C171.755 26.014 172.45 26.462 172.786 27.358C172.982 26.938 173.281 26.6113 173.682 26.378C174.083 26.1353 174.541 26.014 175.054 26.014ZM182.16 26.014C183.028 26.014 183.672 26.238 184.092 26.686C184.521 27.1247 184.736 27.7967 184.736 28.702V33H183.63V31.838C183.453 32.2393 183.182 32.552 182.818 32.776C182.454 32.9907 182.034 33.098 181.558 33.098C181.119 33.098 180.713 33.0093 180.34 32.832C179.976 32.6547 179.687 32.4073 179.472 32.09C179.257 31.7727 179.15 31.4227 179.15 31.04C179.15 30.5267 179.281 30.13 179.542 29.85C179.803 29.5607 180.233 29.3553 180.83 29.234C181.427 29.1033 182.258 29.038 183.322 29.038H183.63V28.576C183.63 28.0067 183.513 27.596 183.28 27.344C183.047 27.0827 182.669 26.952 182.146 26.952C181.362 26.952 180.583 27.1947 179.808 27.68L179.43 26.854C179.785 26.602 180.209 26.4013 180.704 26.252C181.208 26.0933 181.693 26.014 182.16 26.014ZM181.712 32.202C182.272 32.202 182.729 32.0153 183.084 31.642C183.448 31.2593 183.63 30.7693 183.63 30.172V29.766H183.378C182.557 29.766 181.931 29.8033 181.502 29.878C181.073 29.9433 180.765 30.06 180.578 30.228C180.401 30.3867 180.312 30.6247 180.312 30.942C180.312 31.306 180.443 31.6093 180.704 31.852C180.975 32.0853 181.311 32.202 181.712 32.202ZM189.808 32.188C190.013 32.188 190.218 32.174 190.424 32.146L190.368 33.042C190.153 33.0793 189.92 33.098 189.668 33.098C188.846 33.098 188.226 32.8833 187.806 32.454C187.395 32.0247 187.19 31.4273 187.19 30.662V27.078H185.86V26.182H187.19V24.11H188.324V26.182H190.256V27.078H188.324V30.578C188.324 31.6513 188.818 32.188 189.808 32.188ZM197.282 29.766H192.298C192.335 30.5593 192.55 31.1613 192.942 31.572C193.334 31.9733 193.889 32.174 194.608 32.174C195.401 32.174 196.129 31.9033 196.792 31.362L197.17 32.188C196.871 32.468 196.488 32.692 196.022 32.86C195.555 33.0187 195.079 33.098 194.594 33.098C193.53 33.098 192.69 32.7853 192.074 32.16C191.467 31.5347 191.164 30.6713 191.164 29.57C191.164 28.87 191.299 28.254 191.57 27.722C191.84 27.1807 192.218 26.7607 192.704 26.462C193.198 26.1633 193.758 26.014 194.384 26.014C195.289 26.014 195.998 26.3127 196.512 26.91C197.025 27.498 197.282 28.31 197.282 29.346V29.766ZM194.398 26.896C193.8 26.896 193.32 27.0827 192.956 27.456C192.601 27.8293 192.391 28.3567 192.326 29.038H196.288C196.269 28.3473 196.096 27.82 195.77 27.456C195.443 27.0827 194.986 26.896 194.398 26.896ZM205.334 26.014C206.202 26.014 206.846 26.238 207.266 26.686C207.695 27.1247 207.91 27.7967 207.91 28.702V33H206.804V31.838C206.626 32.2393 206.356 32.552 205.992 32.776C205.628 32.9907 205.208 33.098 204.732 33.098C204.293 33.098 203.887 33.0093 203.514 32.832C203.15 32.6547 202.86 32.4073 202.646 32.09C202.431 31.7727 202.324 31.4227 202.324 31.04C202.324 30.5267 202.454 30.13 202.716 29.85C202.977 29.5607 203.406 29.3553 204.004 29.234C204.601 29.1033 205.432 29.038 206.496 29.038H206.804V28.576C206.804 28.0067 206.687 27.596 206.454 27.344C206.22 27.0827 205.842 26.952 205.32 26.952C204.536 26.952 203.756 27.1947 202.982 27.68L202.604 26.854C202.958 26.602 203.383 26.4013 203.878 26.252C204.382 26.0933 204.867 26.014 205.334 26.014ZM204.886 32.202C205.446 32.202 205.903 32.0153 206.258 31.642C206.622 31.2593 206.804 30.7693 206.804 30.172V29.766H206.552C205.73 29.766 205.105 29.8033 204.676 29.878C204.246 29.9433 203.938 30.06 203.752 30.228C203.574 30.3867 203.486 30.6247 203.486 30.942C203.486 31.306 203.616 31.6093 203.878 31.852C204.148 32.0853 204.484 32.202 204.886 32.202ZM213.416 26.014C215.049 26.014 215.866 26.9147 215.866 28.716V33H214.732V28.786C214.732 28.1513 214.606 27.6893 214.354 27.4C214.111 27.1107 213.719 26.966 213.178 26.966C212.552 26.966 212.053 27.1573 211.68 27.54C211.306 27.9227 211.12 28.4407 211.12 29.094V33H209.986V26.182H211.106V27.302C211.33 26.882 211.642 26.5647 212.044 26.35C212.445 26.126 212.902 26.014 213.416 26.014ZM223.991 23.13V33H222.857V31.754C222.651 32.1833 222.348 32.5147 221.947 32.748C221.555 32.9813 221.093 33.098 220.561 33.098C219.963 33.098 219.436 32.9487 218.979 32.65C218.521 32.3513 218.167 31.936 217.915 31.404C217.663 30.8627 217.537 30.2373 217.537 29.528C217.537 28.828 217.663 28.212 217.915 27.68C218.167 27.148 218.521 26.7373 218.979 26.448C219.436 26.1587 219.963 26.014 220.561 26.014C221.093 26.014 221.555 26.1307 221.947 26.364C222.348 26.5973 222.651 26.9287 222.857 27.358V23.13H223.991ZM220.785 32.16C221.447 32.16 221.956 31.936 222.311 31.488C222.675 31.0307 222.857 30.3867 222.857 29.556C222.857 28.7253 222.675 28.086 222.311 27.638C221.956 27.19 221.447 26.966 220.785 26.966C220.122 26.966 219.604 27.19 219.231 27.638C218.867 28.086 218.685 28.716 218.685 29.528C218.685 30.3587 218.867 31.0073 219.231 31.474C219.604 31.9313 220.122 32.16 220.785 32.16ZM82.046 51.188C82.2513 51.188 82.4567 51.174 82.662 51.146L82.606 52.042C82.3913 52.0793 82.158 52.098 81.906 52.098C81.0847 52.098 80.464 51.8833 80.044 51.454C79.6333 51.0247 79.428 50.4273 79.428 49.662V46.078H78.098V45.182H79.428V43.11H80.562V45.182H82.494V46.078H80.562V49.578C80.562 50.6513 81.0567 51.188 82.046 51.188ZM87.2378 45.014C88.8711 45.014 89.6878 45.9147 89.6878 47.716V52H88.5538V47.786C88.5538 47.1513 88.4278 46.6893 88.1758 46.4C87.9331 46.1107 87.5411 45.966 86.9998 45.966C86.3745 45.966 85.8751 46.1573 85.5018 46.54C85.1285 46.9227 84.9418 47.4407 84.9418 48.094V52H83.8078V42.13H84.9418V46.274C85.1658 45.8633 85.4738 45.5507 85.8658 45.336C86.2671 45.1213 86.7245 45.014 87.2378 45.014ZM97.4768 48.766H92.4928C92.5302 49.5593 92.7448 50.1613 93.1368 50.572C93.5288 50.9733 94.0842 51.174 94.8028 51.174C95.5962 51.174 96.3242 50.9033 96.9868 50.362L97.3648 51.188C97.0662 51.468 96.6835 51.692 96.2168 51.86C95.7502 52.0187 95.2742 52.098 94.7888 52.098C93.7248 52.098 92.8848 51.7853 92.2688 51.16C91.6622 50.5347 91.3588 49.6713 91.3588 48.57C91.3588 47.87 91.4942 47.254 91.7648 46.722C92.0355 46.1807 92.4135 45.7607 92.8988 45.462C93.3935 45.1633 93.9535 45.014 94.5788 45.014C95.4842 45.014 96.1935 45.3127 96.7068 45.91C97.2202 46.498 97.4768 47.31 97.4768 48.346V48.766ZM94.5928 45.896C93.9955 45.896 93.5148 46.0827 93.1508 46.456C92.7962 46.8293 92.5862 47.3567 92.5208 48.038H96.4828C96.4642 47.3473 96.2915 46.82 95.9648 46.456C95.6382 46.0827 95.1808 45.896 94.5928 45.896ZM105.753 51.188C105.958 51.188 106.164 51.174 106.369 51.146L106.313 52.042C106.098 52.0793 105.865 52.098 105.613 52.098C104.792 52.098 104.171 51.8833 103.751 51.454C103.34 51.0247 103.135 50.4273 103.135 49.662V46.078H101.805V45.182H103.135V43.11H104.269V45.182H106.201V46.078H104.269V49.578C104.269 50.6513 104.764 51.188 105.753 51.188ZM107.515 45.182H108.649V52H107.515V45.182ZM108.775 42.228V43.502H107.403V42.228H108.775ZM118.357 45.014C119.869 45.014 120.625 45.9147 120.625 47.716V52H119.491V47.772C119.491 47.1467 119.379 46.6893 119.155 46.4C118.94 46.1107 118.59 45.966 118.105 45.966C117.535 45.966 117.087 46.1573 116.761 46.54C116.434 46.9227 116.271 47.4453 116.271 48.108V52H115.137V47.772C115.137 47.1373 115.025 46.68 114.801 46.4C114.577 46.1107 114.222 45.966 113.737 45.966C113.167 45.966 112.719 46.1573 112.393 46.54C112.066 46.9227 111.903 47.4453 111.903 48.108V52H110.769V45.182H111.889V46.26C112.094 45.8587 112.379 45.5507 112.743 45.336C113.107 45.1213 113.527 45.014 114.003 45.014C115.057 45.014 115.753 45.462 116.089 46.358C116.285 45.938 116.583 45.6113 116.985 45.378C117.386 45.1353 117.843 45.014 118.357 45.014ZM122.691 45.182H123.825V52H122.691V45.182ZM123.951 42.228V43.502H122.579V42.228H123.951ZM129.375 45.014C131.008 45.014 131.825 45.9147 131.825 47.716V52H130.691V47.786C130.691 47.1513 130.565 46.6893 130.313 46.4C130.07 46.1107 129.678 45.966 129.137 45.966C128.511 45.966 128.012 46.1573 127.639 46.54C127.265 46.9227 127.079 47.4407 127.079 48.094V52H125.945V45.182H127.065V46.302C127.289 45.882 127.601 45.5647 128.003 45.35C128.404 45.126 128.861 45.014 129.375 45.014ZM140.006 45.182V51.538C140.006 52.5553 139.744 53.3207 139.222 53.834C138.699 54.3567 137.924 54.618 136.898 54.618C135.703 54.618 134.7 54.31 133.888 53.694L134.266 52.854C134.723 53.1527 135.152 53.3673 135.554 53.498C135.955 53.6287 136.403 53.694 136.898 53.694C137.551 53.694 138.046 53.5167 138.382 53.162C138.718 52.8167 138.886 52.308 138.886 51.636V50.432C138.69 50.8707 138.386 51.2067 137.976 51.44C137.574 51.6733 137.098 51.79 136.548 51.79C135.95 51.79 135.418 51.65 134.952 51.37C134.494 51.09 134.135 50.6933 133.874 50.18C133.622 49.6667 133.496 49.074 133.496 48.402C133.496 47.73 133.622 47.1373 133.874 46.624C134.135 46.1107 134.494 45.714 134.952 45.434C135.418 45.154 135.95 45.014 136.548 45.014C137.089 45.014 137.56 45.1307 137.962 45.364C138.363 45.5973 138.666 45.9287 138.872 46.358V45.182H140.006ZM136.772 50.852C137.425 50.852 137.938 50.6373 138.312 50.208C138.685 49.7693 138.872 49.1673 138.872 48.402C138.872 47.646 138.685 47.0533 138.312 46.624C137.948 46.1853 137.434 45.966 136.772 45.966C136.109 45.966 135.586 46.1853 135.204 46.624C134.83 47.0533 134.644 47.646 134.644 48.402C134.644 49.1673 134.83 49.7693 135.204 50.208C135.586 50.6373 136.109 50.852 136.772 50.852ZM148.542 52.098C147.898 52.098 147.329 51.9533 146.834 51.664C146.349 51.3747 145.971 50.964 145.7 50.432C145.439 49.8907 145.308 49.2653 145.308 48.556C145.308 47.8467 145.439 47.226 145.7 46.694C145.971 46.1527 146.349 45.7373 146.834 45.448C147.329 45.1587 147.898 45.014 148.542 45.014C149.186 45.014 149.755 45.1587 150.25 45.448C150.745 45.7373 151.123 46.1527 151.384 46.694C151.655 47.226 151.79 47.8467 151.79 48.556C151.79 49.2653 151.655 49.8907 151.384 50.432C151.123 50.964 150.745 51.3747 150.25 51.664C149.755 51.9533 149.186 52.098 148.542 52.098ZM148.542 51.16C149.214 51.16 149.727 50.9407 150.082 50.502C150.446 50.054 150.628 49.4053 150.628 48.556C150.628 47.7253 150.446 47.086 150.082 46.638C149.718 46.1807 149.205 45.952 148.542 45.952C147.879 45.952 147.366 46.1807 147.002 46.638C146.638 47.086 146.456 47.7253 146.456 48.556C146.456 49.396 146.633 50.04 146.988 50.488C147.352 50.936 147.87 51.16 148.542 51.16ZM154.978 45.182H156.91V46.078H154.978V52H153.844V46.078H152.514V45.182H153.844V44.958C153.844 44.0527 154.068 43.3667 154.516 42.9C154.973 42.4333 155.673 42.172 156.616 42.116L157.176 42.088L157.26 42.97L156.616 43.012C156.047 43.0493 155.631 43.2127 155.37 43.502C155.109 43.782 154.978 44.216 154.978 44.804V45.182ZM167.689 45.196L163.657 54.52H162.495L163.643 51.916L160.759 45.196H161.963L164.245 50.768L166.555 45.196H167.689ZM171.607 52.098C170.963 52.098 170.393 51.9533 169.899 51.664C169.413 51.3747 169.035 50.964 168.765 50.432C168.503 49.8907 168.373 49.2653 168.373 48.556C168.373 47.8467 168.503 47.226 168.765 46.694C169.035 46.1527 169.413 45.7373 169.899 45.448C170.393 45.1587 170.963 45.014 171.607 45.014C172.251 45.014 172.82 45.1587 173.315 45.448C173.809 45.7373 174.187 46.1527 174.449 46.694C174.719 47.226 174.855 47.8467 174.855 48.556C174.855 49.2653 174.719 49.8907 174.449 50.432C174.187 50.964 173.809 51.3747 173.315 51.664C172.82 51.9533 172.251 52.098 171.607 52.098ZM171.607 51.16C172.279 51.16 172.792 50.9407 173.147 50.502C173.511 50.054 173.693 49.4053 173.693 48.556C173.693 47.7253 173.511 47.086 173.147 46.638C172.783 46.1807 172.269 45.952 171.607 45.952C170.944 45.952 170.431 46.1807 170.067 46.638C169.703 47.086 169.521 47.7253 169.521 48.556C169.521 49.396 169.698 50.04 170.053 50.488C170.417 50.936 170.935 51.16 171.607 51.16ZM182.284 45.182V52H181.178V50.838C180.963 51.2487 180.66 51.5613 180.268 51.776C179.885 51.9907 179.451 52.098 178.966 52.098C178.154 52.098 177.543 51.874 177.132 51.426C176.721 50.9687 176.516 50.2967 176.516 49.41V45.182H177.65V49.382C177.65 49.9887 177.771 50.4367 178.014 50.726C178.257 51.006 178.639 51.146 179.162 51.146C179.759 51.146 180.24 50.9547 180.604 50.572C180.968 50.18 181.15 49.6667 181.15 49.032V45.182H182.284ZM188.256 45.994L187.514 46.064C186.814 46.1293 186.305 46.3487 185.988 46.722C185.68 47.0953 185.526 47.5573 185.526 48.108V52H184.392V45.182H185.498V46.372C185.88 45.5787 186.632 45.1353 187.752 45.042L188.158 45.014L188.256 45.994ZM194.449 45.182H196.381V46.078H194.449V52H193.315V46.078H191.985V45.182H193.315V44.958C193.315 44.0527 193.539 43.3667 193.987 42.9C194.444 42.4333 195.144 42.172 196.087 42.116L196.647 42.088L196.731 42.97L196.087 43.012C195.517 43.0493 195.102 43.2127 194.841 43.502C194.579 43.782 194.449 44.216 194.449 44.804V45.182ZM203.27 45.182V52H202.164V50.838C201.95 51.2487 201.646 51.5613 201.254 51.776C200.872 51.9907 200.438 52.098 199.952 52.098C199.14 52.098 198.529 51.874 198.118 51.426C197.708 50.9687 197.502 50.2967 197.502 49.41V45.182H198.636V49.382C198.636 49.9887 198.758 50.4367 199 50.726C199.243 51.006 199.626 51.146 200.148 51.146C200.746 51.146 201.226 50.9547 201.59 50.572C201.954 50.18 202.136 49.6667 202.136 49.032V45.182H203.27ZM208.374 51.188C208.579 51.188 208.785 51.174 208.99 51.146L208.934 52.042C208.719 52.0793 208.486 52.098 208.234 52.098C207.413 52.098 206.792 51.8833 206.372 51.454C205.961 51.0247 205.756 50.4273 205.756 49.662V46.078H204.426V45.182H205.756V43.11H206.89V45.182H208.822V46.078H206.89V49.578C206.89 50.6513 207.385 51.188 208.374 51.188ZM215.876 45.182V52H214.77V50.838C214.555 51.2487 214.252 51.5613 213.86 51.776C213.477 51.9907 213.043 52.098 212.558 52.098C211.746 52.098 211.135 51.874 210.724 51.426C210.313 50.9687 210.108 50.2967 210.108 49.41V45.182H211.242V49.382C211.242 49.9887 211.363 50.4367 211.606 50.726C211.849 51.006 212.231 51.146 212.754 51.146C213.351 51.146 213.832 50.9547 214.196 50.572C214.56 50.18 214.742 49.6667 214.742 49.032V45.182H215.876ZM221.848 45.994L221.106 46.064C220.406 46.1293 219.897 46.3487 219.58 46.722C219.272 47.0953 219.118 47.5573 219.118 48.108V52H217.984V45.182H219.09V46.372C219.472 45.5787 220.224 45.1353 221.344 45.042L221.75 45.014L221.848 45.994ZM228.494 48.766H223.51C223.548 49.5593 223.762 50.1613 224.154 50.572C224.546 50.9733 225.102 51.174 225.82 51.174C226.614 51.174 227.342 50.9033 228.004 50.362L228.382 51.188C228.084 51.468 227.701 51.692 227.234 51.86C226.768 52.0187 226.292 52.098 225.806 52.098C224.742 52.098 223.902 51.7853 223.286 51.16C222.68 50.5347 222.376 49.6713 222.376 48.57C222.376 47.87 222.512 47.254 222.782 46.722C223.053 46.1807 223.431 45.7607 223.916 45.462C224.411 45.1633 224.971 45.014 225.596 45.014C226.502 45.014 227.211 45.3127 227.724 45.91C228.238 46.498 228.494 47.31 228.494 48.346V48.766ZM225.61 45.896C225.013 45.896 224.532 46.0827 224.168 46.456C223.814 46.8293 223.604 47.3567 223.538 48.038H227.5C227.482 47.3473 227.309 46.82 226.982 46.456C226.656 46.0827 226.198 45.896 225.61 45.896ZM237.639 45.994L236.897 46.064C236.197 46.1293 235.688 46.3487 235.371 46.722C235.063 47.0953 234.909 47.5573 234.909 48.108V52H233.775V45.182H234.881V46.372C235.263 45.5787 236.015 45.1353 237.135 45.042L237.541 45.014L237.639 45.994ZM244.285 48.766H239.301C239.339 49.5593 239.553 50.1613 239.945 50.572C240.337 50.9733 240.893 51.174 241.611 51.174C242.405 51.174 243.133 50.9033 243.795 50.362L244.173 51.188C243.875 51.468 243.492 51.692 243.025 51.86C242.559 52.0187 242.083 52.098 241.597 52.098C240.533 52.098 239.693 51.7853 239.077 51.16C238.471 50.5347 238.167 49.6713 238.167 48.57C238.167 47.87 238.303 47.254 238.573 46.722C238.844 46.1807 239.222 45.7607 239.707 45.462C240.202 45.1633 240.762 45.014 241.387 45.014C242.293 45.014 243.002 45.3127 243.515 45.91C244.029 46.498 244.285 47.31 244.285 48.346V48.766ZM241.401 45.896C240.804 45.896 240.323 46.0827 239.959 46.456C239.605 46.8293 239.395 47.3567 239.329 48.038H243.291C243.273 47.3473 243.1 46.82 242.773 46.456C242.447 46.0827 241.989 45.896 241.401 45.896ZM249.386 45.014C249.984 45.014 250.511 45.1633 250.968 45.462C251.426 45.7607 251.78 46.1807 252.032 46.722C252.284 47.254 252.41 47.8747 252.41 48.584C252.41 49.2933 252.284 49.914 252.032 50.446C251.78 50.9687 251.426 51.3747 250.968 51.664C250.52 51.9533 249.993 52.098 249.386 52.098C248.854 52.098 248.388 51.9813 247.986 51.748C247.594 51.5147 247.296 51.1833 247.09 50.754V54.52H245.956V45.182H247.09V46.358C247.296 45.9287 247.594 45.5973 247.986 45.364C248.388 45.1307 248.854 45.014 249.386 45.014ZM249.162 51.16C249.825 51.16 250.338 50.936 250.702 50.488C251.066 50.04 251.248 49.4053 251.248 48.584C251.248 47.7627 251.066 47.1233 250.702 46.666C250.338 46.1993 249.825 45.966 249.162 45.966C248.5 45.966 247.986 46.19 247.622 46.638C247.268 47.086 247.09 47.7253 247.09 48.556C247.09 49.3867 247.268 50.0307 247.622 50.488C247.986 50.936 248.5 51.16 249.162 51.16ZM256.877 45.014C257.745 45.014 258.389 45.238 258.809 45.686C259.238 46.1247 259.453 46.7967 259.453 47.702V52H258.347V50.838C258.169 51.2393 257.899 51.552 257.535 51.776C257.171 51.9907 256.751 52.098 256.275 52.098C255.836 52.098 255.43 52.0093 255.057 51.832C254.693 51.6547 254.403 51.4073 254.189 51.09C253.974 50.7727 253.867 50.4227 253.867 50.04C253.867 49.5267 253.997 49.13 254.259 48.85C254.52 48.5607 254.949 48.3553 255.547 48.234C256.144 48.1033 256.975 48.038 258.039 48.038H258.347V47.576C258.347 47.0067 258.23 46.596 257.997 46.344C257.763 46.0827 257.385 45.952 256.863 45.952C256.079 45.952 255.299 46.1947 254.525 46.68L254.147 45.854C254.501 45.602 254.926 45.4013 255.421 45.252C255.925 45.0933 256.41 45.014 256.877 45.014ZM256.429 51.202C256.989 51.202 257.446 51.0153 257.801 50.642C258.165 50.2593 258.347 49.7693 258.347 49.172V48.766H258.095C257.273 48.766 256.648 48.8033 256.219 48.878C255.789 48.9433 255.481 49.06 255.295 49.228C255.117 49.3867 255.029 49.6247 255.029 49.942C255.029 50.306 255.159 50.6093 255.421 50.852C255.691 51.0853 256.027 51.202 256.429 51.202ZM261.529 45.182H262.663V52H261.529V45.182ZM262.789 42.228V43.502H261.417V42.228H262.789ZM268.646 45.994L267.904 46.064C267.204 46.1293 266.696 46.3487 266.378 46.722C266.07 47.0953 265.916 47.5573 265.916 48.108V52H264.782V45.182H265.888V46.372C266.271 45.5787 267.022 45.1353 268.142 45.042L268.548 45.014L268.646 45.994ZM271.96 52.098C270.812 52.098 269.902 51.804 269.23 51.216L269.608 50.376C269.972 50.6653 270.34 50.8753 270.714 51.006C271.096 51.1273 271.526 51.188 272.002 51.188C272.506 51.188 272.888 51.104 273.15 50.936C273.42 50.7587 273.556 50.5067 273.556 50.18C273.556 49.9093 273.467 49.6947 273.29 49.536C273.112 49.3773 272.818 49.2513 272.408 49.158L271.26 48.892C270.681 48.7613 270.238 48.5373 269.93 48.22C269.622 47.9027 269.468 47.5107 269.468 47.044C269.468 46.4373 269.706 45.9473 270.182 45.574C270.658 45.2007 271.292 45.014 272.086 45.014C272.562 45.014 273.014 45.0933 273.444 45.252C273.873 45.4013 274.232 45.6207 274.522 45.91L274.144 46.736C273.518 46.204 272.832 45.938 272.086 45.938C271.61 45.938 271.236 46.0313 270.966 46.218C270.704 46.3953 270.574 46.6473 270.574 46.974C270.574 47.2447 270.653 47.464 270.812 47.632C270.98 47.7907 271.246 47.912 271.61 47.996L272.772 48.276C273.406 48.4253 273.878 48.654 274.186 48.962C274.494 49.2607 274.648 49.6527 274.648 50.138C274.648 50.7353 274.405 51.2113 273.92 51.566C273.444 51.9207 272.79 52.098 271.96 52.098Z" fill="#363636"/>
<defs>
<filter id="filter0_d_1_11108" x="0" y="0" width="87.757" height="87.7571" filterUnits="userSpaceOnUse" color-interpolation-filters="sRGB">
<feFlood flood-opacity="0" result="BackgroundImageFix"/>
<feColorMatrix in="SourceAlpha" type="matrix" values="0 0 0 0 0 0 0 0 0 0 0 0 0 0 0 0 0 0 127 0" result="hardAlpha"/>
<feOffset dy="5"/>
<feGaussianBlur stdDeviation="7.5"/>
<feColorMatrix type="matrix" values="0 0 0 0 0.890196 0 0 0 0 0.721569 0 0 0 0 0.45098 0 0 0 0.15 0"/>
<feBlend mode="normal" in2="BackgroundImageFix" result="effect1_dropShadow_1_11108"/>
<feBlend mode="normal" in="SourceGraphic" in2="effect1_dropShadow_1_11108" result="shape"/>
</filter>
</defs>
</svg>
