<svg width="398" height="88" viewBox="0 0 398 88" fill="none" xmlns="http://www.w3.org/2000/svg">
<path d="M87.1554 32.2497C86.2407 32.2497 85.4427 32.0444 84.7614 31.6337C84.0894 31.223 83.5714 30.6397 83.2074 29.8837C82.8434 29.1277 82.6614 28.2364 82.6614 27.2097C82.6614 26.1737 82.8387 25.2777 83.1934 24.5217C83.5574 23.7564 84.0754 23.173 84.7474 22.7717C85.4287 22.361 86.2314 22.1557 87.1554 22.1557C88.0794 22.1557 88.8774 22.361 89.5494 22.7717C90.2307 23.173 90.7487 23.7564 91.1034 24.5217C91.4674 25.2777 91.6494 26.169 91.6494 27.1957C91.6494 28.2224 91.4674 29.1184 91.1034 29.8837C90.7394 30.6397 90.2167 31.223 89.5354 31.6337C88.8634 32.0444 88.07 32.2497 87.1554 32.2497ZM87.1554 31.2697C88.2007 31.2697 89.0127 30.9197 89.5914 30.2197C90.1794 29.5104 90.4734 28.5024 90.4734 27.1957C90.4734 25.889 90.184 24.8857 89.6054 24.1857C89.0267 23.4857 88.21 23.1357 87.1554 23.1357C86.11 23.1357 85.2934 23.4904 84.7054 24.1997C84.1267 24.8997 83.8374 25.8984 83.8374 27.1957C83.8374 28.493 84.1267 29.4964 84.7054 30.2057C85.2934 30.915 86.11 31.2697 87.1554 31.2697ZM99.2888 25.3197V32.1377H98.1828V30.9757C97.9681 31.3864 97.6648 31.699 97.2728 31.9137C96.8901 32.1284 96.4561 32.2357 95.9708 32.2357C95.1588 32.2357 94.5474 32.0117 94.1368 31.5637C93.7261 31.1064 93.5208 30.4344 93.5208 29.5477V25.3197H94.6548V29.5197C94.6548 30.1264 94.7761 30.5744 95.0188 30.8637C95.2614 31.1437 95.6441 31.2837 96.1668 31.2837C96.7641 31.2837 97.2448 31.0924 97.6088 30.7097C97.9728 30.3177 98.1548 29.8044 98.1548 29.1697V25.3197H99.2888ZM105.26 26.1317L104.518 26.2017C103.818 26.267 103.31 26.4864 102.992 26.8597C102.684 27.233 102.53 27.695 102.53 28.2457V32.1377H101.396V25.3197H102.502V26.5097C102.885 25.7164 103.636 25.273 104.756 25.1797L105.162 25.1517L105.26 26.1317ZM112.251 32.2357C111.103 32.2357 110.193 31.9417 109.521 31.3537L109.899 30.5137C110.263 30.803 110.632 31.013 111.005 31.1437C111.388 31.265 111.817 31.3257 112.293 31.3257C112.797 31.3257 113.18 31.2417 113.441 31.0737C113.712 30.8964 113.847 30.6444 113.847 30.3177C113.847 30.047 113.759 29.8324 113.581 29.6737C113.404 29.515 113.11 29.389 112.699 29.2957L111.551 29.0297C110.973 28.899 110.529 28.675 110.221 28.3577C109.913 28.0404 109.759 27.6484 109.759 27.1817C109.759 26.575 109.997 26.085 110.473 25.7117C110.949 25.3384 111.584 25.1517 112.377 25.1517C112.853 25.1517 113.306 25.231 113.735 25.3897C114.165 25.539 114.524 25.7584 114.813 26.0477L114.435 26.8737C113.81 26.3417 113.124 26.0757 112.377 26.0757C111.901 26.0757 111.528 26.169 111.257 26.3557C110.996 26.533 110.865 26.785 110.865 27.1117C110.865 27.3824 110.945 27.6017 111.103 27.7697C111.271 27.9284 111.537 28.0497 111.901 28.1337L113.063 28.4137C113.698 28.563 114.169 28.7917 114.477 29.0997C114.785 29.3984 114.939 29.7904 114.939 30.2757C114.939 30.873 114.697 31.349 114.211 31.7037C113.735 32.0584 113.082 32.2357 112.251 32.2357ZM120.098 25.1517C120.695 25.1517 121.223 25.301 121.68 25.5997C122.137 25.8984 122.492 26.3184 122.744 26.8597C122.996 27.3917 123.122 28.0124 123.122 28.7217C123.122 29.431 122.996 30.0517 122.744 30.5837C122.492 31.1064 122.137 31.5124 121.68 31.8017C121.232 32.091 120.705 32.2357 120.098 32.2357C119.566 32.2357 119.099 32.119 118.698 31.8857C118.306 31.6524 118.007 31.321 117.802 30.8917V34.6577H116.668V25.3197H117.802V26.4957C118.007 26.0664 118.306 25.735 118.698 25.5017C119.099 25.2684 119.566 25.1517 120.098 25.1517ZM119.874 31.2977C120.537 31.2977 121.05 31.0737 121.414 30.6257C121.778 30.1777 121.96 29.543 121.96 28.7217C121.96 27.9004 121.778 27.261 121.414 26.8037C121.05 26.337 120.537 26.1037 119.874 26.1037C119.211 26.1037 118.698 26.3277 118.334 26.7757C117.979 27.2237 117.802 27.863 117.802 28.6937C117.802 29.5244 117.979 30.1684 118.334 30.6257C118.698 31.0737 119.211 31.2977 119.874 31.2977ZM130.528 28.9037H125.544C125.582 29.697 125.796 30.299 126.188 30.7097C126.58 31.111 127.136 31.3117 127.854 31.3117C128.648 31.3117 129.376 31.041 130.038 30.4997L130.416 31.3257C130.118 31.6057 129.735 31.8297 129.268 31.9977C128.802 32.1564 128.326 32.2357 127.84 32.2357C126.776 32.2357 125.936 31.923 125.32 31.2977C124.714 30.6724 124.41 29.809 124.41 28.7077C124.41 28.0077 124.546 27.3917 124.816 26.8597C125.087 26.3184 125.465 25.8984 125.95 25.5997C126.445 25.301 127.005 25.1517 127.63 25.1517C128.536 25.1517 129.245 25.4504 129.758 26.0477C130.272 26.6357 130.528 27.4477 130.528 28.4837V28.9037ZM127.644 26.0337C127.047 26.0337 126.566 26.2204 126.202 26.5937C125.848 26.967 125.638 27.4944 125.572 28.1757H129.534C129.516 27.485 129.343 26.9577 129.016 26.5937C128.69 26.2204 128.232 26.0337 127.644 26.0337ZM135.083 32.2357C134.411 32.2357 133.828 32.091 133.333 31.8017C132.839 31.5124 132.456 31.1064 132.185 30.5837C131.924 30.0517 131.793 29.431 131.793 28.7217C131.793 28.0124 131.929 27.3917 132.199 26.8597C132.479 26.3184 132.867 25.8984 133.361 25.5997C133.865 25.301 134.453 25.1517 135.125 25.1517C135.583 25.1517 136.031 25.2357 136.469 25.4037C136.908 25.5624 137.263 25.777 137.533 26.0477L137.155 26.8877C136.511 26.365 135.858 26.1037 135.195 26.1037C134.495 26.1037 133.949 26.3324 133.557 26.7897C133.165 27.247 132.969 27.891 132.969 28.7217C132.969 29.543 133.165 30.1777 133.557 30.6257C133.949 31.0737 134.495 31.2977 135.195 31.2977C135.858 31.2977 136.511 31.0364 137.155 30.5137L137.533 31.3537C137.244 31.6244 136.88 31.839 136.441 31.9977C136.003 32.1564 135.55 32.2357 135.083 32.2357ZM138.898 25.3197H140.032V32.1377H138.898V25.3197ZM140.158 22.3657V23.6397H138.786V22.3657H140.158ZM144.924 25.1517C145.792 25.1517 146.436 25.3757 146.856 25.8237C147.286 26.2624 147.5 26.9344 147.5 27.8397V32.1377H146.394V30.9757C146.217 31.377 145.946 31.6897 145.582 31.9137C145.218 32.1284 144.798 32.2357 144.322 32.2357C143.884 32.2357 143.478 32.147 143.104 31.9697C142.74 31.7924 142.451 31.545 142.236 31.2277C142.022 30.9104 141.914 30.5604 141.914 30.1777C141.914 29.6644 142.045 29.2677 142.306 28.9877C142.568 28.6984 142.997 28.493 143.594 28.3717C144.192 28.241 145.022 28.1757 146.086 28.1757H146.394V27.7137C146.394 27.1444 146.278 26.7337 146.044 26.4817C145.811 26.2204 145.433 26.0897 144.91 26.0897C144.126 26.0897 143.347 26.3324 142.572 26.8177L142.194 25.9917C142.549 25.7397 142.974 25.539 143.468 25.3897C143.972 25.231 144.458 25.1517 144.924 25.1517ZM144.476 31.3397C145.036 31.3397 145.494 31.153 145.848 30.7797C146.212 30.397 146.394 29.907 146.394 29.3097V28.9037H146.142C145.321 28.9037 144.696 28.941 144.266 29.0157C143.837 29.081 143.529 29.1977 143.342 29.3657C143.165 29.5244 143.076 29.7624 143.076 30.0797C143.076 30.4437 143.207 30.747 143.468 30.9897C143.739 31.223 144.075 31.3397 144.476 31.3397ZM149.576 22.2677H150.71V32.1377H149.576V22.2677ZM152.83 25.3197H153.964V32.1377H152.83V25.3197ZM154.09 22.3657V23.6397H152.718V22.3657H154.09ZM158.394 32.2357C157.246 32.2357 156.336 31.9417 155.664 31.3537L156.042 30.5137C156.406 30.803 156.775 31.013 157.148 31.1437C157.531 31.265 157.96 31.3257 158.436 31.3257C158.94 31.3257 159.323 31.2417 159.584 31.0737C159.855 30.8964 159.99 30.6444 159.99 30.3177C159.99 30.047 159.901 29.8324 159.724 29.6737C159.547 29.515 159.253 29.389 158.842 29.2957L157.694 29.0297C157.115 28.899 156.672 28.675 156.364 28.3577C156.056 28.0404 155.902 27.6484 155.902 27.1817C155.902 26.575 156.14 26.085 156.616 25.7117C157.092 25.3384 157.727 25.1517 158.52 25.1517C158.996 25.1517 159.449 25.231 159.878 25.3897C160.307 25.539 160.667 25.7584 160.956 26.0477L160.578 26.8737C159.953 26.3417 159.267 26.0757 158.52 26.0757C158.044 26.0757 157.671 26.169 157.4 26.3557C157.139 26.533 157.008 26.785 157.008 27.1117C157.008 27.3824 157.087 27.6017 157.246 27.7697C157.414 27.9284 157.68 28.0497 158.044 28.1337L159.206 28.4137C159.841 28.563 160.312 28.7917 160.62 29.0997C160.928 29.3984 161.082 29.7904 161.082 30.2757C161.082 30.873 160.839 31.349 160.354 31.7037C159.878 32.0584 159.225 32.2357 158.394 32.2357ZM165.738 31.3257C165.943 31.3257 166.149 31.3117 166.354 31.2837L166.298 32.1797C166.083 32.217 165.85 32.2357 165.598 32.2357C164.777 32.2357 164.156 32.021 163.736 31.5917C163.325 31.1624 163.12 30.565 163.12 29.7997V26.2157H161.79V25.3197H163.12V23.2477H164.254V25.3197H166.186V26.2157H164.254V29.7157C164.254 30.789 164.749 31.3257 165.738 31.3257ZM181.497 25.3197L178.963 32.1377H177.871L175.953 26.8597L174.021 32.1377H172.943L170.409 25.3197H171.585L173.517 30.7937L175.491 25.3197H176.471L178.417 30.7937L180.363 25.3197H181.497ZM182.894 25.3197H184.028V32.1377H182.894V25.3197ZM184.154 22.3657V23.6397H182.782V22.3657H184.154ZM186.148 22.2677H187.282V32.1377H186.148V22.2677ZM189.402 22.2677H190.536V32.1377H189.402V22.2677ZM199.038 25.1517C199.906 25.1517 200.55 25.3757 200.97 25.8237C201.399 26.2624 201.614 26.9344 201.614 27.8397V32.1377H200.508V30.9757C200.33 31.377 200.06 31.6897 199.696 31.9137C199.332 32.1284 198.912 32.2357 198.436 32.2357C197.997 32.2357 197.591 32.147 197.218 31.9697C196.854 31.7924 196.564 31.545 196.35 31.2277C196.135 30.9104 196.028 30.5604 196.028 30.1777C196.028 29.6644 196.158 29.2677 196.42 28.9877C196.681 28.6984 197.11 28.493 197.708 28.3717C198.305 28.241 199.136 28.1757 200.2 28.1757H200.508V27.7137C200.508 27.1444 200.391 26.7337 200.158 26.4817C199.924 26.2204 199.546 26.0897 199.024 26.0897C198.24 26.0897 197.46 26.3324 196.686 26.8177L196.308 25.9917C196.662 25.7397 197.087 25.539 197.582 25.3897C198.086 25.231 198.571 25.1517 199.038 25.1517ZM198.59 31.3397C199.15 31.3397 199.607 31.153 199.962 30.7797C200.326 30.397 200.508 29.907 200.508 29.3097V28.9037H200.256C199.434 28.9037 198.809 28.941 198.38 29.0157C197.95 29.081 197.642 29.1977 197.456 29.3657C197.278 29.5244 197.19 29.7624 197.19 30.0797C197.19 30.4437 197.32 30.747 197.582 30.9897C197.852 31.223 198.188 31.3397 198.59 31.3397ZM207.553 26.1317L206.811 26.2017C206.111 26.267 205.603 26.4864 205.285 26.8597C204.977 27.233 204.823 27.695 204.823 28.2457V32.1377H203.689V25.3197H204.795V26.5097C205.178 25.7164 205.929 25.273 207.049 25.1797L207.455 25.1517L207.553 26.1317ZM212.489 26.1317L211.747 26.2017C211.047 26.267 210.538 26.4864 210.221 26.8597C209.913 27.233 209.759 27.695 209.759 28.2457V32.1377H208.625V25.3197H209.731V26.5097C210.114 25.7164 210.865 25.273 211.985 25.1797L212.391 25.1517L212.489 26.1317ZM213.56 25.3197H214.694V32.1377H213.56V25.3197ZM214.82 22.3657V23.6397H213.448V22.3657H214.82ZM222.834 25.3337L219.894 32.1377H218.83L215.904 25.3337H217.108L219.39 30.9057L221.7 25.3337H222.834ZM229.636 28.9037H224.652C224.689 29.697 224.904 30.299 225.296 30.7097C225.688 31.111 226.243 31.3117 226.962 31.3117C227.755 31.3117 228.483 31.041 229.146 30.4997L229.524 31.3257C229.225 31.6057 228.842 31.8297 228.376 31.9977C227.909 32.1564 227.433 32.2357 226.948 32.2357C225.884 32.2357 225.044 31.923 224.428 31.2977C223.821 30.6724 223.518 29.809 223.518 28.7077C223.518 28.0077 223.653 27.3917 223.924 26.8597C224.194 26.3184 224.572 25.8984 225.058 25.5997C225.552 25.301 226.112 25.1517 226.738 25.1517C227.643 25.1517 228.352 25.4504 228.866 26.0477C229.379 26.6357 229.636 27.4477 229.636 28.4837V28.9037ZM226.752 26.0337C226.154 26.0337 225.674 26.2204 225.31 26.5937C224.955 26.967 224.745 27.4944 224.68 28.1757H228.642C228.623 27.485 228.45 26.9577 228.124 26.5937C227.797 26.2204 227.34 26.0337 226.752 26.0337ZM236.428 25.3197H238.36V26.2157H236.428V32.1377H235.294V26.2157H233.964V25.3197H235.294V25.0957C235.294 24.1904 235.518 23.5044 235.966 23.0377C236.423 22.571 237.123 22.3097 238.066 22.2537L238.626 22.2257L238.71 23.1077L238.066 23.1497C237.497 23.187 237.081 23.3504 236.82 23.6397C236.559 23.9197 236.428 24.3537 236.428 24.9417V25.3197ZM242.269 32.2357C241.625 32.2357 241.056 32.091 240.561 31.8017C240.076 31.5124 239.698 31.1017 239.427 30.5697C239.166 30.0284 239.035 29.403 239.035 28.6937C239.035 27.9844 239.166 27.3637 239.427 26.8317C239.698 26.2904 240.076 25.875 240.561 25.5857C241.056 25.2964 241.625 25.1517 242.269 25.1517C242.913 25.1517 243.483 25.2964 243.977 25.5857C244.472 25.875 244.85 26.2904 245.111 26.8317C245.382 27.3637 245.517 27.9844 245.517 28.6937C245.517 29.403 245.382 30.0284 245.111 30.5697C244.85 31.1017 244.472 31.5124 243.977 31.8017C243.483 32.091 242.913 32.2357 242.269 32.2357ZM242.269 31.2977C242.941 31.2977 243.455 31.0784 243.809 30.6397C244.173 30.1917 244.355 29.543 244.355 28.6937C244.355 27.863 244.173 27.2237 243.809 26.7757C243.445 26.3184 242.932 26.0897 242.269 26.0897C241.607 26.0897 241.093 26.3184 240.729 26.7757C240.365 27.2237 240.183 27.863 240.183 28.6937C240.183 29.5337 240.361 30.1777 240.715 30.6257C241.079 31.0737 241.597 31.2977 242.269 31.2977ZM251.071 26.1317L250.329 26.2017C249.629 26.267 249.12 26.4864 248.803 26.8597C248.495 27.233 248.341 27.695 248.341 28.2457V32.1377H247.207V25.3197H248.313V26.5097C248.696 25.7164 249.447 25.273 250.567 25.1797L250.973 25.1517L251.071 26.1317ZM263.34 25.1517C264.852 25.1517 265.608 26.0524 265.608 27.8537V32.1377H264.474V27.9097C264.474 27.2844 264.362 26.827 264.138 26.5377C263.923 26.2484 263.573 26.1037 263.088 26.1037C262.519 26.1037 262.071 26.295 261.744 26.6777C261.417 27.0604 261.254 27.583 261.254 28.2457V32.1377H260.12V27.9097C260.12 27.275 260.008 26.8177 259.784 26.5377C259.56 26.2484 259.205 26.1037 258.72 26.1037C258.151 26.1037 257.703 26.295 257.376 26.6777C257.049 27.0604 256.886 27.583 256.886 28.2457V32.1377H255.752V25.3197H256.872V26.3977C257.077 25.9964 257.362 25.6884 257.726 25.4737C258.09 25.259 258.51 25.1517 258.986 25.1517C260.041 25.1517 260.736 25.5997 261.072 26.4957C261.268 26.0757 261.567 25.749 261.968 25.5157C262.369 25.273 262.827 25.1517 263.34 25.1517ZM273.386 28.9037H268.402C268.439 29.697 268.654 30.299 269.046 30.7097C269.438 31.111 269.993 31.3117 270.712 31.3117C271.505 31.3117 272.233 31.041 272.896 30.4997L273.274 31.3257C272.975 31.6057 272.592 31.8297 272.126 31.9977C271.659 32.1564 271.183 32.2357 270.698 32.2357C269.634 32.2357 268.794 31.923 268.178 31.2977C267.571 30.6724 267.268 29.809 267.268 28.7077C267.268 28.0077 267.403 27.3917 267.674 26.8597C267.944 26.3184 268.322 25.8984 268.808 25.5997C269.302 25.301 269.862 25.1517 270.488 25.1517C271.393 25.1517 272.102 25.4504 272.616 26.0477C273.129 26.6357 273.386 27.4477 273.386 28.4837V28.9037ZM270.502 26.0337C269.904 26.0337 269.424 26.2204 269.06 26.5937C268.705 26.967 268.495 27.4944 268.43 28.1757H272.392C272.373 27.485 272.2 26.9577 271.874 26.5937C271.547 26.2204 271.09 26.0337 270.502 26.0337ZM277.829 25.1517C278.697 25.1517 279.341 25.3757 279.761 25.8237C280.19 26.2624 280.405 26.9344 280.405 27.8397V32.1377H279.299V30.9757C279.121 31.377 278.851 31.6897 278.487 31.9137C278.123 32.1284 277.703 32.2357 277.227 32.2357C276.788 32.2357 276.382 32.147 276.009 31.9697C275.645 31.7924 275.355 31.545 275.141 31.2277C274.926 30.9104 274.819 30.5604 274.819 30.1777C274.819 29.6644 274.949 29.2677 275.211 28.9877C275.472 28.6984 275.901 28.493 276.499 28.3717C277.096 28.241 277.927 28.1757 278.991 28.1757H279.299V27.7137C279.299 27.1444 279.182 26.7337 278.949 26.4817C278.715 26.2204 278.337 26.0897 277.815 26.0897C277.031 26.0897 276.251 26.3324 275.477 26.8177L275.099 25.9917C275.453 25.7397 275.878 25.539 276.373 25.3897C276.877 25.231 277.362 25.1517 277.829 25.1517ZM277.381 31.3397C277.941 31.3397 278.398 31.153 278.753 30.7797C279.117 30.397 279.299 29.907 279.299 29.3097V28.9037H279.047C278.225 28.9037 277.6 28.941 277.171 29.0157C276.741 29.081 276.433 29.1977 276.247 29.3657C276.069 29.5244 275.981 29.7624 275.981 30.0797C275.981 30.4437 276.111 30.747 276.373 30.9897C276.643 31.223 276.979 31.3397 277.381 31.3397ZM284.79 32.2357C283.642 32.2357 282.732 31.9417 282.06 31.3537L282.438 30.5137C282.802 30.803 283.171 31.013 283.544 31.1437C283.927 31.265 284.356 31.3257 284.832 31.3257C285.336 31.3257 285.719 31.2417 285.98 31.0737C286.251 30.8964 286.386 30.6444 286.386 30.3177C286.386 30.047 286.298 29.8324 286.12 29.6737C285.943 29.515 285.649 29.389 285.238 29.2957L284.09 29.0297C283.512 28.899 283.068 28.675 282.76 28.3577C282.452 28.0404 282.298 27.6484 282.298 27.1817C282.298 26.575 282.536 26.085 283.012 25.7117C283.488 25.3384 284.123 25.1517 284.916 25.1517C285.392 25.1517 285.845 25.231 286.274 25.3897C286.704 25.539 287.063 25.7584 287.352 26.0477L286.974 26.8737C286.349 26.3417 285.663 26.0757 284.916 26.0757C284.44 26.0757 284.067 26.169 283.796 26.3557C283.535 26.533 283.404 26.785 283.404 27.1117C283.404 27.3824 283.484 27.6017 283.642 27.7697C283.81 27.9284 284.076 28.0497 284.44 28.1337L285.602 28.4137C286.237 28.563 286.708 28.7917 287.016 29.0997C287.324 29.3984 287.478 29.7904 287.478 30.2757C287.478 30.873 287.236 31.349 286.75 31.7037C286.274 32.0584 285.621 32.2357 284.79 32.2357ZM294.947 25.3197V32.1377H293.841V30.9757C293.626 31.3864 293.323 31.699 292.931 31.9137C292.548 32.1284 292.114 32.2357 291.629 32.2357C290.817 32.2357 290.206 32.0117 289.795 31.5637C289.384 31.1064 289.179 30.4344 289.179 29.5477V25.3197H290.313V29.5197C290.313 30.1264 290.434 30.5744 290.677 30.8637C290.92 31.1437 291.302 31.2837 291.825 31.2837C292.422 31.2837 292.903 31.0924 293.267 30.7097C293.631 30.3177 293.813 29.8044 293.813 29.1697V25.3197H294.947ZM300.919 26.1317L300.177 26.2017C299.477 26.267 298.968 26.4864 298.651 26.8597C298.343 27.233 298.189 27.695 298.189 28.2457V32.1377H297.055V25.3197H298.161V26.5097C298.543 25.7164 299.295 25.273 300.415 25.1797L300.821 25.1517L300.919 26.1317ZM307.565 28.9037H302.581C302.619 29.697 302.833 30.299 303.225 30.7097C303.617 31.111 304.173 31.3117 304.891 31.3117C305.685 31.3117 306.413 31.041 307.075 30.4997L307.453 31.3257C307.155 31.6057 306.772 31.8297 306.305 31.9977C305.839 32.1564 305.363 32.2357 304.877 32.2357C303.813 32.2357 302.973 31.923 302.357 31.2977C301.751 30.6724 301.447 29.809 301.447 28.7077C301.447 28.0077 301.583 27.3917 301.853 26.8597C302.124 26.3184 302.502 25.8984 302.987 25.5997C303.482 25.301 304.042 25.1517 304.667 25.1517C305.573 25.1517 306.282 25.4504 306.795 26.0477C307.309 26.6357 307.565 27.4477 307.565 28.4837V28.9037ZM304.681 26.0337C304.084 26.0337 303.603 26.2204 303.239 26.5937C302.885 26.967 302.675 27.4944 302.609 28.1757H306.571C306.553 27.485 306.38 26.9577 306.053 26.5937C305.727 26.2204 305.269 26.0337 304.681 26.0337ZM316.824 25.1517C318.336 25.1517 319.092 26.0524 319.092 27.8537V32.1377H317.958V27.9097C317.958 27.2844 317.846 26.827 317.622 26.5377C317.408 26.2484 317.058 26.1037 316.572 26.1037C316.003 26.1037 315.555 26.295 315.228 26.6777C314.902 27.0604 314.738 27.583 314.738 28.2457V32.1377H313.604V27.9097C313.604 27.275 313.492 26.8177 313.268 26.5377C313.044 26.2484 312.69 26.1037 312.204 26.1037C311.635 26.1037 311.187 26.295 310.86 26.6777C310.534 27.0604 310.37 27.583 310.37 28.2457V32.1377H309.236V25.3197H310.356V26.3977C310.562 25.9964 310.846 25.6884 311.21 25.4737C311.574 25.259 311.994 25.1517 312.47 25.1517C313.525 25.1517 314.22 25.5997 314.556 26.4957C314.752 26.0757 315.051 25.749 315.452 25.5157C315.854 25.273 316.311 25.1517 316.824 25.1517ZM326.87 28.9037H321.886C321.923 29.697 322.138 30.299 322.53 30.7097C322.922 31.111 323.477 31.3117 324.196 31.3117C324.989 31.3117 325.717 31.041 326.38 30.4997L326.758 31.3257C326.459 31.6057 326.077 31.8297 325.61 31.9977C325.143 32.1564 324.667 32.2357 324.182 32.2357C323.118 32.2357 322.278 31.923 321.662 31.2977C321.055 30.6724 320.752 29.809 320.752 28.7077C320.752 28.0077 320.887 27.3917 321.158 26.8597C321.429 26.3184 321.807 25.8984 322.292 25.5997C322.787 25.301 323.347 25.1517 323.972 25.1517C324.877 25.1517 325.587 25.4504 326.1 26.0477C326.613 26.6357 326.87 27.4477 326.87 28.4837V28.9037ZM323.986 26.0337C323.389 26.0337 322.908 26.2204 322.544 26.5937C322.189 26.967 321.979 27.4944 321.914 28.1757H325.876C325.857 27.485 325.685 26.9577 325.358 26.5937C325.031 26.2204 324.574 26.0337 323.986 26.0337ZM331.971 25.1517C333.604 25.1517 334.421 26.0524 334.421 27.8537V32.1377H333.287V27.9237C333.287 27.289 333.161 26.827 332.909 26.5377C332.666 26.2484 332.274 26.1037 331.733 26.1037C331.108 26.1037 330.608 26.295 330.235 26.6777C329.862 27.0604 329.675 27.5784 329.675 28.2317V32.1377H328.541V25.3197H329.661V26.4397C329.885 26.0197 330.198 25.7024 330.599 25.4877C331 25.2637 331.458 25.1517 331.971 25.1517ZM339.494 31.3257C339.699 31.3257 339.905 31.3117 340.11 31.2837L340.054 32.1797C339.839 32.217 339.606 32.2357 339.354 32.2357C338.533 32.2357 337.912 32.021 337.492 31.5917C337.081 31.1624 336.876 30.565 336.876 29.7997V26.2157H335.546V25.3197H336.876V23.2477H338.01V25.3197H339.942V26.2157H338.01V29.7157C338.01 30.789 338.505 31.3257 339.494 31.3257ZM343.566 32.2357C342.418 32.2357 341.508 31.9417 340.836 31.3537L341.214 30.5137C341.578 30.803 341.946 31.013 342.32 31.1437C342.702 31.265 343.132 31.3257 343.608 31.3257C344.112 31.3257 344.494 31.2417 344.756 31.0737C345.026 30.8964 345.162 30.6444 345.162 30.3177C345.162 30.047 345.073 29.8324 344.896 29.6737C344.718 29.515 344.424 29.389 344.014 29.2957L342.866 29.0297C342.287 28.899 341.844 28.675 341.536 28.3577C341.228 28.0404 341.074 27.6484 341.074 27.1817C341.074 26.575 341.312 26.085 341.788 25.7117C342.264 25.3384 342.898 25.1517 343.692 25.1517C344.168 25.1517 344.62 25.231 345.05 25.3897C345.479 25.539 345.838 25.7584 346.128 26.0477L345.75 26.8737C345.124 26.3417 344.438 26.0757 343.692 26.0757C343.216 26.0757 342.842 26.169 342.572 26.3557C342.31 26.533 342.18 26.785 342.18 27.1117C342.18 27.3824 342.259 27.6017 342.418 27.7697C342.586 27.9284 342.852 28.0497 343.216 28.1337L344.378 28.4137C345.012 28.563 345.484 28.7917 345.792 29.0997C346.1 29.3984 346.254 29.7904 346.254 30.2757C346.254 30.873 346.011 31.349 345.526 31.7037C345.05 32.0584 344.396 32.2357 343.566 32.2357ZM355.022 25.1517C355.619 25.1517 356.146 25.301 356.604 25.5997C357.061 25.8984 357.416 26.3184 357.668 26.8597C357.92 27.3917 358.046 28.0124 358.046 28.7217C358.046 29.431 357.92 30.0517 357.668 30.5837C357.416 31.1064 357.061 31.5124 356.604 31.8017C356.156 32.091 355.628 32.2357 355.022 32.2357C354.49 32.2357 354.023 32.119 353.622 31.8857C353.23 31.6524 352.931 31.321 352.726 30.8917V34.6577H351.592V25.3197H352.726V26.4957C352.931 26.0664 353.23 25.735 353.622 25.5017C354.023 25.2684 354.49 25.1517 355.022 25.1517ZM354.798 31.2977C355.46 31.2977 355.974 31.0737 356.338 30.6257C356.702 30.1777 356.884 29.543 356.884 28.7217C356.884 27.9004 356.702 27.261 356.338 26.8037C355.974 26.337 355.46 26.1037 354.798 26.1037C354.135 26.1037 353.622 26.3277 353.258 26.7757C352.903 27.2237 352.726 27.863 352.726 28.6937C352.726 29.5244 352.903 30.1684 353.258 30.6257C353.622 31.0737 354.135 31.2977 354.798 31.2977ZM365.452 28.9037H360.468C360.506 29.697 360.72 30.299 361.112 30.7097C361.504 31.111 362.06 31.3117 362.778 31.3117C363.572 31.3117 364.3 31.041 364.962 30.4997L365.34 31.3257C365.042 31.6057 364.659 31.8297 364.192 31.9977C363.726 32.1564 363.25 32.2357 362.764 32.2357C361.7 32.2357 360.86 31.923 360.244 31.2977C359.638 30.6724 359.334 29.809 359.334 28.7077C359.334 28.0077 359.47 27.3917 359.74 26.8597C360.011 26.3184 360.389 25.8984 360.874 25.5997C361.369 25.301 361.929 25.1517 362.554 25.1517C363.46 25.1517 364.169 25.4504 364.682 26.0477C365.196 26.6357 365.452 27.4477 365.452 28.4837V28.9037ZM362.568 26.0337C361.971 26.0337 361.49 26.2204 361.126 26.5937C360.772 26.967 360.562 27.4944 360.496 28.1757H364.458C364.44 27.485 364.267 26.9577 363.94 26.5937C363.614 26.2204 363.156 26.0337 362.568 26.0337ZM370.987 26.1317L370.245 26.2017C369.545 26.267 369.036 26.4864 368.719 26.8597C368.411 27.233 368.257 27.695 368.257 28.2457V32.1377H367.123V25.3197H368.229V26.5097C368.612 25.7164 369.363 25.273 370.483 25.1797L370.889 25.1517L370.987 26.1317ZM381.716 22.2677V32.1377H380.582V30.8917C380.377 31.321 380.073 31.6524 379.672 31.8857C379.28 32.119 378.818 32.2357 378.286 32.2357C377.689 32.2357 377.161 32.0864 376.704 31.7877C376.247 31.489 375.892 31.0737 375.64 30.5417C375.388 30.0004 375.262 29.375 375.262 28.6657C375.262 27.9657 375.388 27.3497 375.64 26.8177C375.892 26.2857 376.247 25.875 376.704 25.5857C377.161 25.2964 377.689 25.1517 378.286 25.1517C378.818 25.1517 379.28 25.2684 379.672 25.5017C380.073 25.735 380.377 26.0664 380.582 26.4957V22.2677H381.716ZM378.51 31.2977C379.173 31.2977 379.681 31.0737 380.036 30.6257C380.4 30.1684 380.582 29.5244 380.582 28.6937C380.582 27.863 380.4 27.2237 380.036 26.7757C379.681 26.3277 379.173 26.1037 378.51 26.1037C377.847 26.1037 377.329 26.3277 376.956 26.7757C376.592 27.2237 376.41 27.8537 376.41 28.6657C376.41 29.4964 376.592 30.145 376.956 30.6117C377.329 31.069 377.847 31.2977 378.51 31.2977ZM386.588 25.1517C387.456 25.1517 388.1 25.3757 388.52 25.8237C388.95 26.2624 389.164 26.9344 389.164 27.8397V32.1377H388.058V30.9757C387.881 31.377 387.61 31.6897 387.246 31.9137C386.882 32.1284 386.462 32.2357 385.986 32.2357C385.548 32.2357 385.142 32.147 384.768 31.9697C384.404 31.7924 384.115 31.545 383.9 31.2277C383.686 30.9104 383.578 30.5604 383.578 30.1777C383.578 29.6644 383.709 29.2677 383.97 28.9877C384.232 28.6984 384.661 28.493 385.258 28.3717C385.856 28.241 386.686 28.1757 387.75 28.1757H388.058V27.7137C388.058 27.1444 387.942 26.7337 387.708 26.4817C387.475 26.2204 387.097 26.0897 386.574 26.0897C385.79 26.0897 385.011 26.3324 384.236 26.8177L383.858 25.9917C384.213 25.7397 384.638 25.539 385.132 25.3897C385.636 25.231 386.122 25.1517 386.588 25.1517ZM386.14 31.3397C386.7 31.3397 387.158 31.153 387.512 30.7797C387.876 30.397 388.058 29.907 388.058 29.3097V28.9037H387.806C386.985 28.9037 386.36 28.941 385.93 29.0157C385.501 29.081 385.193 29.1977 385.006 29.3657C384.829 29.5244 384.74 29.7624 384.74 30.0797C384.74 30.4437 384.871 30.747 385.132 30.9897C385.403 31.223 385.739 31.3397 386.14 31.3397ZM397.26 25.3337L393.228 34.6577H392.066L393.214 32.0537L390.33 25.3337H391.534L393.816 30.9057L396.126 25.3337H397.26ZM85.7414 51.2357C85.0694 51.2357 84.486 51.091 83.9914 50.8017C83.4967 50.5124 83.114 50.1064 82.8434 49.5837C82.582 49.0517 82.4514 48.431 82.4514 47.7217C82.4514 47.0124 82.5867 46.3917 82.8574 45.8597C83.1374 45.3184 83.5247 44.8984 84.0194 44.5997C84.5234 44.301 85.1114 44.1517 85.7834 44.1517C86.2407 44.1517 86.6887 44.2357 87.1274 44.4037C87.566 44.5624 87.9207 44.777 88.1914 45.0477L87.8134 45.8877C87.1694 45.365 86.516 45.1037 85.8534 45.1037C85.1534 45.1037 84.6074 45.3324 84.2154 45.7897C83.8234 46.247 83.6274 46.891 83.6274 47.7217C83.6274 48.543 83.8234 49.1777 84.2154 49.6257C84.6074 50.0737 85.1534 50.2977 85.8534 50.2977C86.516 50.2977 87.1694 50.0364 87.8134 49.5137L88.1914 50.3537C87.902 50.6244 87.538 50.839 87.0994 50.9977C86.6607 51.1564 86.208 51.2357 85.7414 51.2357ZM92.3846 51.2357C91.7406 51.2357 91.1713 51.091 90.6766 50.8017C90.1913 50.5124 89.8133 50.1017 89.5426 49.5697C89.2813 49.0284 89.1506 48.403 89.1506 47.6937C89.1506 46.9844 89.2813 46.3637 89.5426 45.8317C89.8133 45.2904 90.1913 44.875 90.6766 44.5857C91.1713 44.2964 91.7406 44.1517 92.3846 44.1517C93.0286 44.1517 93.5979 44.2964 94.0926 44.5857C94.5873 44.875 94.9653 45.2904 95.2266 45.8317C95.4973 46.3637 95.6326 46.9844 95.6326 47.6937C95.6326 48.403 95.4973 49.0284 95.2266 49.5697C94.9653 50.1017 94.5873 50.5124 94.0926 50.8017C93.5979 51.091 93.0286 51.2357 92.3846 51.2357ZM92.3846 50.2977C93.0566 50.2977 93.5699 50.0784 93.9246 49.6397C94.2886 49.1917 94.4706 48.543 94.4706 47.6937C94.4706 46.863 94.2886 46.2237 93.9246 45.7757C93.5606 45.3184 93.0473 45.0897 92.3846 45.0897C91.7219 45.0897 91.2086 45.3184 90.8446 45.7757C90.4806 46.2237 90.2986 46.863 90.2986 47.6937C90.2986 48.5337 90.4759 49.1777 90.8306 49.6257C91.1946 50.0737 91.7126 50.2977 92.3846 50.2977ZM100.752 44.1517C102.386 44.1517 103.202 45.0524 103.202 46.8537V51.1377H102.068V46.9237C102.068 46.289 101.942 45.827 101.69 45.5377C101.448 45.2484 101.056 45.1037 100.514 45.1037C99.8889 45.1037 99.3896 45.295 99.0162 45.6777C98.6429 46.0604 98.4562 46.5784 98.4562 47.2317V51.1377H97.3222V44.3197H98.4422V45.4397C98.6662 45.0197 98.9789 44.7024 99.3802 44.4877C99.7816 44.2637 100.239 44.1517 100.752 44.1517ZM108.275 50.3257C108.481 50.3257 108.686 50.3117 108.891 50.2837L108.835 51.1797C108.621 51.217 108.387 51.2357 108.135 51.2357C107.314 51.2357 106.693 51.021 106.273 50.5917C105.863 50.1624 105.657 49.565 105.657 48.7997V45.2157H104.327V44.3197H105.657V42.2477H106.791V44.3197H108.723V45.2157H106.791V48.7157C106.791 49.789 107.286 50.3257 108.275 50.3257ZM112.809 44.1517C113.677 44.1517 114.321 44.3757 114.741 44.8237C115.17 45.2624 115.385 45.9344 115.385 46.8397V51.1377H114.279V49.9757C114.102 50.377 113.831 50.6897 113.467 50.9137C113.103 51.1284 112.683 51.2357 112.207 51.2357C111.768 51.2357 111.362 51.147 110.989 50.9697C110.625 50.7924 110.336 50.545 110.121 50.2277C109.906 49.9104 109.799 49.5604 109.799 49.1777C109.799 48.6644 109.93 48.2677 110.191 47.9877C110.452 47.6984 110.882 47.493 111.479 47.3717C112.076 47.241 112.907 47.1757 113.971 47.1757H114.279V46.7137C114.279 46.1444 114.162 45.7337 113.929 45.4817C113.696 45.2204 113.318 45.0897 112.795 45.0897C112.011 45.0897 111.232 45.3324 110.457 45.8177L110.079 44.9917C110.434 44.7397 110.858 44.539 111.353 44.3897C111.857 44.231 112.342 44.1517 112.809 44.1517ZM112.361 50.3397C112.921 50.3397 113.378 50.153 113.733 49.7797C114.097 49.397 114.279 48.907 114.279 48.3097V47.9037H114.027C113.206 47.9037 112.58 47.941 112.151 48.0157C111.722 48.081 111.414 48.1977 111.227 48.3657C111.05 48.5244 110.961 48.7624 110.961 49.0797C110.961 49.4437 111.092 49.747 111.353 49.9897C111.624 50.223 111.96 50.3397 112.361 50.3397ZM120.345 51.2357C119.673 51.2357 119.09 51.091 118.595 50.8017C118.1 50.5124 117.718 50.1064 117.447 49.5837C117.186 49.0517 117.055 48.431 117.055 47.7217C117.055 47.0124 117.19 46.3917 117.461 45.8597C117.741 45.3184 118.128 44.8984 118.623 44.5997C119.127 44.301 119.715 44.1517 120.387 44.1517C120.844 44.1517 121.292 44.2357 121.731 44.4037C122.17 44.5624 122.524 44.777 122.795 45.0477L122.417 45.8877C121.773 45.365 121.12 45.1037 120.457 45.1037C119.757 45.1037 119.211 45.3324 118.819 45.7897C118.427 46.247 118.231 46.891 118.231 47.7217C118.231 48.543 118.427 49.1777 118.819 49.6257C119.211 50.0737 119.757 50.2977 120.457 50.2977C121.12 50.2977 121.773 50.0364 122.417 49.5137L122.795 50.3537C122.506 50.6244 122.142 50.839 121.703 50.9977C121.264 51.1564 120.812 51.2357 120.345 51.2357ZM127.17 50.3257C127.375 50.3257 127.58 50.3117 127.786 50.2837L127.73 51.1797C127.515 51.217 127.282 51.2357 127.03 51.2357C126.208 51.2357 125.588 51.021 125.168 50.5917C124.757 50.1624 124.552 49.565 124.552 48.7997V45.2157H123.222V44.3197H124.552V42.2477H125.686V44.3197H127.618V45.2157H125.686V48.7157C125.686 49.789 126.18 50.3257 127.17 50.3257ZM130.383 49.7097V50.7177C130.383 51.1097 130.318 51.4644 130.187 51.7817C130.066 52.1084 129.851 52.4257 129.543 52.7337L129.011 52.3277C129.375 51.9264 129.58 51.5297 129.627 51.1377H128.955V49.7097H130.383ZM138.76 51.2357C138.116 51.2357 137.546 51.091 137.052 50.8017C136.566 50.5124 136.188 50.1017 135.918 49.5697C135.656 49.0284 135.526 48.403 135.526 47.6937C135.526 46.9844 135.656 46.3637 135.918 45.8317C136.188 45.2904 136.566 44.875 137.052 44.5857C137.546 44.2964 138.116 44.1517 138.76 44.1517C139.404 44.1517 139.973 44.2964 140.468 44.5857C140.962 44.875 141.34 45.2904 141.602 45.8317C141.872 46.3637 142.008 46.9844 142.008 47.6937C142.008 48.403 141.872 49.0284 141.602 49.5697C141.34 50.1017 140.962 50.5124 140.468 50.8017C139.973 51.091 139.404 51.2357 138.76 51.2357ZM138.76 50.2977C139.432 50.2977 139.945 50.0784 140.3 49.6397C140.664 49.1917 140.846 48.543 140.846 47.6937C140.846 46.863 140.664 46.2237 140.3 45.7757C139.936 45.3184 139.422 45.0897 138.76 45.0897C138.097 45.0897 137.584 45.3184 137.22 45.7757C136.856 46.2237 136.674 46.863 136.674 47.6937C136.674 48.5337 136.851 49.1777 137.206 49.6257C137.57 50.0737 138.088 50.2977 138.76 50.2977ZM147.561 45.1317L146.819 45.2017C146.119 45.267 145.611 45.4864 145.293 45.8597C144.985 46.233 144.831 46.695 144.831 47.2457V51.1377H143.697V44.3197H144.803V45.5097C145.186 44.7164 145.937 44.273 147.057 44.1797L147.463 44.1517L147.561 45.1317ZM155.014 44.1517C155.882 44.1517 156.526 44.3757 156.946 44.8237C157.375 45.2624 157.59 45.9344 157.59 46.8397V51.1377H156.484V49.9757C156.307 50.377 156.036 50.6897 155.672 50.9137C155.308 51.1284 154.888 51.2357 154.412 51.2357C153.973 51.2357 153.567 51.147 153.194 50.9697C152.83 50.7924 152.541 50.545 152.326 50.2277C152.111 49.9104 152.004 49.5604 152.004 49.1777C152.004 48.6644 152.135 48.2677 152.396 47.9877C152.657 47.6984 153.087 47.493 153.684 47.3717C154.281 47.241 155.112 47.1757 156.176 47.1757H156.484V46.7137C156.484 46.1444 156.367 45.7337 156.134 45.4817C155.901 45.2204 155.523 45.0897 155 45.0897C154.216 45.0897 153.437 45.3324 152.662 45.8177L152.284 44.9917C152.639 44.7397 153.063 44.539 153.558 44.3897C154.062 44.231 154.547 44.1517 155.014 44.1517ZM154.566 50.3397C155.126 50.3397 155.583 50.153 155.938 49.7797C156.302 49.397 156.484 48.907 156.484 48.3097V47.9037H156.232C155.411 47.9037 154.785 47.941 154.356 48.0157C153.927 48.081 153.619 48.1977 153.432 48.3657C153.255 48.5244 153.166 48.7624 153.166 49.0797C153.166 49.4437 153.297 49.747 153.558 49.9897C153.829 50.223 154.165 50.3397 154.566 50.3397ZM163.096 44.1517C163.693 44.1517 164.221 44.301 164.678 44.5997C165.135 44.8984 165.49 45.3184 165.742 45.8597C165.994 46.3917 166.12 47.0124 166.12 47.7217C166.12 48.431 165.994 49.0517 165.742 49.5837C165.49 50.1064 165.135 50.5124 164.678 50.8017C164.23 51.091 163.703 51.2357 163.096 51.2357C162.564 51.2357 162.097 51.119 161.696 50.8857C161.304 50.6524 161.005 50.321 160.8 49.8917V53.6577H159.666V44.3197H160.8V45.4957C161.005 45.0664 161.304 44.735 161.696 44.5017C162.097 44.2684 162.564 44.1517 163.096 44.1517ZM162.872 50.2977C163.535 50.2977 164.048 50.0737 164.412 49.6257C164.776 49.1777 164.958 48.543 164.958 47.7217C164.958 46.9004 164.776 46.261 164.412 45.8037C164.048 45.337 163.535 45.1037 162.872 45.1037C162.209 45.1037 161.696 45.3277 161.332 45.7757C160.977 46.2237 160.8 46.863 160.8 47.6937C160.8 48.5244 160.977 49.1684 161.332 49.6257C161.696 50.0737 162.209 50.2977 162.872 50.2977ZM171.244 44.1517C171.842 44.1517 172.369 44.301 172.826 44.5997C173.284 44.8984 173.638 45.3184 173.89 45.8597C174.142 46.3917 174.268 47.0124 174.268 47.7217C174.268 48.431 174.142 49.0517 173.89 49.5837C173.638 50.1064 173.284 50.5124 172.826 50.8017C172.378 51.091 171.851 51.2357 171.244 51.2357C170.712 51.2357 170.246 51.119 169.844 50.8857C169.452 50.6524 169.154 50.321 168.948 49.8917V53.6577H167.814V44.3197H168.948V45.4957C169.154 45.0664 169.452 44.735 169.844 44.5017C170.246 44.2684 170.712 44.1517 171.244 44.1517ZM171.02 50.2977C171.683 50.2977 172.196 50.0737 172.56 49.6257C172.924 49.1777 173.106 48.543 173.106 47.7217C173.106 46.9004 172.924 46.261 172.56 45.8037C172.196 45.337 171.683 45.1037 171.02 45.1037C170.358 45.1037 169.844 45.3277 169.48 45.7757C169.126 46.2237 168.948 46.863 168.948 47.6937C168.948 48.5244 169.126 49.1684 169.48 49.6257C169.844 50.0737 170.358 50.2977 171.02 50.2977ZM178.791 51.2357C178.147 51.2357 177.578 51.091 177.083 50.8017C176.598 50.5124 176.22 50.1017 175.949 49.5697C175.688 49.0284 175.557 48.403 175.557 47.6937C175.557 46.9844 175.688 46.3637 175.949 45.8317C176.22 45.2904 176.598 44.875 177.083 44.5857C177.578 44.2964 178.147 44.1517 178.791 44.1517C179.435 44.1517 180.004 44.2964 180.499 44.5857C180.994 44.875 181.372 45.2904 181.633 45.8317C181.904 46.3637 182.039 46.9844 182.039 47.6937C182.039 48.403 181.904 49.0284 181.633 49.5697C181.372 50.1017 180.994 50.5124 180.499 50.8017C180.004 51.091 179.435 51.2357 178.791 51.2357ZM178.791 50.2977C179.463 50.2977 179.976 50.0784 180.331 49.6397C180.695 49.1917 180.877 48.543 180.877 47.6937C180.877 46.863 180.695 46.2237 180.331 45.7757C179.967 45.3184 179.454 45.0897 178.791 45.0897C178.128 45.0897 177.615 45.3184 177.251 45.7757C176.887 46.2237 176.705 46.863 176.705 47.6937C176.705 48.5337 176.882 49.1777 177.237 49.6257C177.601 50.0737 178.119 50.2977 178.791 50.2977ZM183.728 44.3197H184.862V51.1377H183.728V44.3197ZM184.988 41.3657V42.6397H183.616V41.3657H184.988ZM190.412 44.1517C192.046 44.1517 192.862 45.0524 192.862 46.8537V51.1377H191.728V46.9237C191.728 46.289 191.602 45.827 191.35 45.5377C191.108 45.2484 190.716 45.1037 190.174 45.1037C189.549 45.1037 189.05 45.295 188.676 45.6777C188.303 46.0604 188.116 46.5784 188.116 47.2317V51.1377H186.982V44.3197H188.102V45.4397C188.326 45.0197 188.639 44.7024 189.04 44.4877C189.442 44.2637 189.899 44.1517 190.412 44.1517ZM197.935 50.3257C198.141 50.3257 198.346 50.3117 198.551 50.2837L198.495 51.1797C198.281 51.217 198.047 51.2357 197.795 51.2357C196.974 51.2357 196.353 51.021 195.933 50.5917C195.523 50.1624 195.317 49.565 195.317 48.7997V45.2157H193.987V44.3197H195.317V42.2477H196.451V44.3197H198.383V45.2157H196.451V48.7157C196.451 49.789 196.946 50.3257 197.935 50.3257ZM206.079 44.1517C206.947 44.1517 207.591 44.3757 208.011 44.8237C208.44 45.2624 208.655 45.9344 208.655 46.8397V51.1377H207.549V49.9757C207.371 50.377 207.101 50.6897 206.737 50.9137C206.373 51.1284 205.953 51.2357 205.477 51.2357C205.038 51.2357 204.632 51.147 204.259 50.9697C203.895 50.7924 203.605 50.545 203.391 50.2277C203.176 49.9104 203.069 49.5604 203.069 49.1777C203.069 48.6644 203.199 48.2677 203.461 47.9877C203.722 47.6984 204.151 47.493 204.749 47.3717C205.346 47.241 206.177 47.1757 207.241 47.1757H207.549V46.7137C207.549 46.1444 207.432 45.7337 207.199 45.4817C206.965 45.2204 206.587 45.0897 206.065 45.0897C205.281 45.0897 204.501 45.3324 203.727 45.8177L203.349 44.9917C203.703 44.7397 204.128 44.539 204.623 44.3897C205.127 44.231 205.612 44.1517 206.079 44.1517ZM205.631 50.3397C206.191 50.3397 206.648 50.153 207.003 49.7797C207.367 49.397 207.549 48.907 207.549 48.3097V47.9037H207.297C206.475 47.9037 205.85 47.941 205.421 48.0157C204.991 48.081 204.683 48.1977 204.497 48.3657C204.319 48.5244 204.231 48.7624 204.231 49.0797C204.231 49.4437 204.361 49.747 204.623 49.9897C204.893 50.223 205.229 50.3397 205.631 50.3397ZM220.388 41.2677V51.1377H219.254V49.8917C219.048 50.321 218.745 50.6524 218.344 50.8857C217.952 51.119 217.49 51.2357 216.958 51.2357C216.36 51.2357 215.833 51.0864 215.376 50.7877C214.918 50.489 214.564 50.0737 214.312 49.5417C214.06 49.0004 213.934 48.375 213.934 47.6657C213.934 46.9657 214.06 46.3497 214.312 45.8177C214.564 45.2857 214.918 44.875 215.376 44.5857C215.833 44.2964 216.36 44.1517 216.958 44.1517C217.49 44.1517 217.952 44.2684 218.344 44.5017C218.745 44.735 219.048 45.0664 219.254 45.4957V41.2677H220.388ZM217.182 50.2977C217.844 50.2977 218.353 50.0737 218.708 49.6257C219.072 49.1684 219.254 48.5244 219.254 47.6937C219.254 46.863 219.072 46.2237 218.708 45.7757C218.353 45.3277 217.844 45.1037 217.182 45.1037C216.519 45.1037 216.001 45.3277 215.628 45.7757C215.264 46.2237 215.082 46.8537 215.082 47.6657C215.082 48.4964 215.264 49.145 215.628 49.6117C216.001 50.069 216.519 50.2977 217.182 50.2977ZM225.26 44.1517C226.128 44.1517 226.772 44.3757 227.192 44.8237C227.622 45.2624 227.836 45.9344 227.836 46.8397V51.1377H226.73V49.9757C226.553 50.377 226.282 50.6897 225.918 50.9137C225.554 51.1284 225.134 51.2357 224.658 51.2357C224.22 51.2357 223.814 51.147 223.44 50.9697C223.076 50.7924 222.787 50.545 222.572 50.2277C222.358 49.9104 222.25 49.5604 222.25 49.1777C222.25 48.6644 222.381 48.2677 222.642 47.9877C222.904 47.6984 223.333 47.493 223.93 47.3717C224.528 47.241 225.358 47.1757 226.422 47.1757H226.73V46.7137C226.73 46.1444 226.614 45.7337 226.38 45.4817C226.147 45.2204 225.769 45.0897 225.246 45.0897C224.462 45.0897 223.683 45.3324 222.908 45.8177L222.53 44.9917C222.885 44.7397 223.31 44.539 223.804 44.3897C224.308 44.231 224.794 44.1517 225.26 44.1517ZM224.812 50.3397C225.372 50.3397 225.83 50.153 226.184 49.7797C226.548 49.397 226.73 48.907 226.73 48.3097V47.9037H226.478C225.657 47.9037 225.032 47.941 224.602 48.0157C224.173 48.081 223.865 48.1977 223.678 48.3657C223.501 48.5244 223.412 48.7624 223.412 49.0797C223.412 49.4437 223.543 49.747 223.804 49.9897C224.075 50.223 224.411 50.3397 224.812 50.3397ZM232.908 50.3257C233.113 50.3257 233.319 50.3117 233.524 50.2837L233.468 51.1797C233.253 51.217 233.02 51.2357 232.768 51.2357C231.947 51.2357 231.326 51.021 230.906 50.5917C230.495 50.1624 230.29 49.565 230.29 48.7997V45.2157H228.96V44.3197H230.29V42.2477H231.424V44.3197H233.356V45.2157H231.424V48.7157C231.424 49.789 231.919 50.3257 232.908 50.3257ZM240.382 47.9037H235.398C235.435 48.697 235.65 49.299 236.042 49.7097C236.434 50.111 236.989 50.3117 237.708 50.3117C238.501 50.3117 239.229 50.041 239.892 49.4997L240.27 50.3257C239.971 50.6057 239.589 50.8297 239.122 50.9977C238.655 51.1564 238.179 51.2357 237.694 51.2357C236.63 51.2357 235.79 50.923 235.174 50.2977C234.567 49.6724 234.264 48.809 234.264 47.7077C234.264 47.0077 234.399 46.3917 234.67 45.8597C234.941 45.3184 235.319 44.8984 235.804 44.5997C236.299 44.301 236.859 44.1517 237.484 44.1517C238.389 44.1517 239.099 44.4504 239.612 45.0477C240.125 45.6357 240.382 46.4477 240.382 47.4837V47.9037ZM237.498 45.0337C236.901 45.0337 236.42 45.2204 236.056 45.5937C235.701 45.967 235.491 46.4944 235.426 47.1757H239.388C239.369 46.485 239.197 45.9577 238.87 45.5937C238.543 45.2204 238.086 45.0337 237.498 45.0337ZM248.546 51.2357C247.874 51.2357 247.291 51.091 246.796 50.8017C246.301 50.5124 245.919 50.1064 245.648 49.5837C245.387 49.0517 245.256 48.431 245.256 47.7217C245.256 47.0124 245.391 46.3917 245.662 45.8597C245.942 45.3184 246.329 44.8984 246.824 44.5997C247.328 44.301 247.916 44.1517 248.588 44.1517C249.045 44.1517 249.493 44.2357 249.932 44.4037C250.371 44.5624 250.725 44.777 250.996 45.0477L250.618 45.8877C249.974 45.365 249.321 45.1037 248.658 45.1037C247.958 45.1037 247.412 45.3324 247.02 45.7897C246.628 46.247 246.432 46.891 246.432 47.7217C246.432 48.543 246.628 49.1777 247.02 49.6257C247.412 50.0737 247.958 50.2977 248.658 50.2977C249.321 50.2977 249.974 50.0364 250.618 49.5137L250.996 50.3537C250.707 50.6244 250.343 50.839 249.904 50.9977C249.465 51.1564 249.013 51.2357 248.546 51.2357ZM255.189 51.2357C254.545 51.2357 253.976 51.091 253.481 50.8017C252.996 50.5124 252.618 50.1017 252.347 49.5697C252.086 49.0284 251.955 48.403 251.955 47.6937C251.955 46.9844 252.086 46.3637 252.347 45.8317C252.618 45.2904 252.996 44.875 253.481 44.5857C253.976 44.2964 254.545 44.1517 255.189 44.1517C255.833 44.1517 256.403 44.2964 256.897 44.5857C257.392 44.875 257.77 45.2904 258.031 45.8317C258.302 46.3637 258.437 46.9844 258.437 47.6937C258.437 48.403 258.302 49.0284 258.031 49.5697C257.77 50.1017 257.392 50.5124 256.897 50.8017C256.403 51.091 255.833 51.2357 255.189 51.2357ZM255.189 50.2977C255.861 50.2977 256.375 50.0784 256.729 49.6397C257.093 49.1917 257.275 48.543 257.275 47.6937C257.275 46.863 257.093 46.2237 256.729 45.7757C256.365 45.3184 255.852 45.0897 255.189 45.0897C254.527 45.0897 254.013 45.3184 253.649 45.7757C253.285 46.2237 253.103 46.863 253.103 47.6937C253.103 48.5337 253.281 49.1777 253.635 49.6257C253.999 50.0737 254.517 50.2977 255.189 50.2977ZM263.557 44.1517C265.19 44.1517 266.007 45.0524 266.007 46.8537V51.1377H264.873V46.9237C264.873 46.289 264.747 45.827 264.495 45.5377C264.252 45.2484 263.86 45.1037 263.319 45.1037C262.694 45.1037 262.194 45.295 261.821 45.6777C261.448 46.0604 261.261 46.5784 261.261 47.2317V51.1377H260.127V44.3197H261.247V45.4397C261.471 45.0197 261.784 44.7024 262.185 44.4877C262.586 44.2637 263.044 44.1517 263.557 44.1517ZM274.104 44.3337L271.164 51.1377H270.1L267.174 44.3337H268.378L270.66 49.9057L272.97 44.3337H274.104ZM280.905 47.9037H275.921C275.959 48.697 276.173 49.299 276.565 49.7097C276.957 50.111 277.513 50.3117 278.231 50.3117C279.025 50.3117 279.753 50.041 280.415 49.4997L280.793 50.3257C280.495 50.6057 280.112 50.8297 279.645 50.9977C279.179 51.1564 278.703 51.2357 278.217 51.2357C277.153 51.2357 276.313 50.923 275.697 50.2977C275.091 49.6724 274.787 48.809 274.787 47.7077C274.787 47.0077 274.923 46.3917 275.193 45.8597C275.464 45.3184 275.842 44.8984 276.327 44.5997C276.822 44.301 277.382 44.1517 278.007 44.1517C278.913 44.1517 279.622 44.4504 280.135 45.0477C280.649 45.6357 280.905 46.4477 280.905 47.4837V47.9037ZM278.021 45.0337C277.424 45.0337 276.943 45.2204 276.579 45.5937C276.225 45.967 276.015 46.4944 275.949 47.1757H279.911C279.893 46.485 279.72 45.9577 279.393 45.5937C279.067 45.2204 278.609 45.0337 278.021 45.0337ZM286.006 44.1517C287.639 44.1517 288.456 45.0524 288.456 46.8537V51.1377H287.322V46.9237C287.322 46.289 287.196 45.827 286.944 45.5377C286.701 45.2484 286.309 45.1037 285.768 45.1037C285.143 45.1037 284.643 45.295 284.27 45.6777C283.897 46.0604 283.71 46.5784 283.71 47.2317V51.1377H282.576V44.3197H283.696V45.4397C283.92 45.0197 284.233 44.7024 284.634 44.4877C285.035 44.2637 285.493 44.1517 286.006 44.1517ZM290.533 44.3197H291.667V51.1377H290.533V44.3197ZM291.793 41.3657V42.6397H290.421V41.3657H291.793ZM299.499 47.9037H294.515C294.552 48.697 294.767 49.299 295.159 49.7097C295.551 50.111 296.106 50.3117 296.825 50.3117C297.618 50.3117 298.346 50.041 299.009 49.4997L299.387 50.3257C299.088 50.6057 298.706 50.8297 298.239 50.9977C297.772 51.1564 297.296 51.2357 296.811 51.2357C295.747 51.2357 294.907 50.923 294.291 50.2977C293.684 49.6724 293.381 48.809 293.381 47.7077C293.381 47.0077 293.516 46.3917 293.787 45.8597C294.058 45.3184 294.436 44.8984 294.921 44.5997C295.416 44.301 295.976 44.1517 296.601 44.1517C297.506 44.1517 298.216 44.4504 298.729 45.0477C299.242 45.6357 299.499 46.4477 299.499 47.4837V47.9037ZM296.615 45.0337C296.018 45.0337 295.537 45.2204 295.173 45.5937C294.818 45.967 294.608 46.4944 294.543 47.1757H298.505C298.486 46.485 298.314 45.9577 297.987 45.5937C297.66 45.2204 297.203 45.0337 296.615 45.0337ZM304.6 44.1517C306.233 44.1517 307.05 45.0524 307.05 46.8537V51.1377H305.916V46.9237C305.916 46.289 305.79 45.827 305.538 45.5377C305.295 45.2484 304.903 45.1037 304.362 45.1037C303.737 45.1037 303.237 45.295 302.864 45.6777C302.491 46.0604 302.304 46.5784 302.304 47.2317V51.1377H301.17V44.3197H302.29V45.4397C302.514 45.0197 302.827 44.7024 303.228 44.4877C303.629 44.2637 304.087 44.1517 304.6 44.1517ZM312.123 50.3257C312.328 50.3257 312.534 50.3117 312.739 50.2837L312.683 51.1797C312.468 51.217 312.235 51.2357 311.983 51.2357C311.162 51.2357 310.541 51.021 310.121 50.5917C309.71 50.1624 309.505 49.565 309.505 48.7997V45.2157H308.175V44.3197H309.505V42.2477H310.639V44.3197H312.571V45.2157H310.639V48.7157C310.639 49.789 311.134 50.3257 312.123 50.3257ZM319.006 44.3197H320.938V45.2157H319.006V51.1377H317.872V45.2157H316.542V44.3197H317.872V44.0957C317.872 43.1904 318.096 42.5044 318.544 42.0377C319.001 41.571 319.701 41.3097 320.644 41.2537L321.204 41.2257L321.288 42.1077L320.644 42.1497C320.075 42.187 319.659 42.3504 319.398 42.6397C319.137 42.9197 319.006 43.3537 319.006 43.9417V44.3197ZM324.847 51.2357C324.203 51.2357 323.634 51.091 323.139 50.8017C322.654 50.5124 322.276 50.1017 322.005 49.5697C321.744 49.0284 321.613 48.403 321.613 47.6937C321.613 46.9844 321.744 46.3637 322.005 45.8317C322.276 45.2904 322.654 44.875 323.139 44.5857C323.634 44.2964 324.203 44.1517 324.847 44.1517C325.491 44.1517 326.061 44.2964 326.555 44.5857C327.05 44.875 327.428 45.2904 327.689 45.8317C327.96 46.3637 328.095 46.9844 328.095 47.6937C328.095 48.403 327.96 49.0284 327.689 49.5697C327.428 50.1017 327.05 50.5124 326.555 50.8017C326.061 51.091 325.491 51.2357 324.847 51.2357ZM324.847 50.2977C325.519 50.2977 326.033 50.0784 326.387 49.6397C326.751 49.1917 326.933 48.543 326.933 47.6937C326.933 46.863 326.751 46.2237 326.387 45.7757C326.023 45.3184 325.51 45.0897 324.847 45.0897C324.185 45.0897 323.671 45.3184 323.307 45.7757C322.943 46.2237 322.761 46.863 322.761 47.6937C322.761 48.5337 322.939 49.1777 323.293 49.6257C323.657 50.0737 324.175 50.2977 324.847 50.2977ZM333.649 45.1317L332.907 45.2017C332.207 45.267 331.698 45.4864 331.381 45.8597C331.073 46.233 330.919 46.695 330.919 47.2457V51.1377H329.785V44.3197H330.891V45.5097C331.274 44.7164 332.025 44.273 333.145 44.1797L333.551 44.1517L333.649 45.1317ZM344.35 44.3337L340.318 53.6577H339.156L340.304 51.0537L337.42 44.3337H338.624L340.906 49.9057L343.216 44.3337H344.35ZM348.267 51.2357C347.623 51.2357 347.054 51.091 346.559 50.8017C346.074 50.5124 345.696 50.1017 345.425 49.5697C345.164 49.0284 345.033 48.403 345.033 47.6937C345.033 46.9844 345.164 46.3637 345.425 45.8317C345.696 45.2904 346.074 44.875 346.559 44.5857C347.054 44.2964 347.623 44.1517 348.267 44.1517C348.911 44.1517 349.481 44.2964 349.975 44.5857C350.47 44.875 350.848 45.2904 351.109 45.8317C351.38 46.3637 351.515 46.9844 351.515 47.6937C351.515 48.403 351.38 49.0284 351.109 49.5697C350.848 50.1017 350.47 50.5124 349.975 50.8017C349.481 51.091 348.911 51.2357 348.267 51.2357ZM348.267 50.2977C348.939 50.2977 349.453 50.0784 349.807 49.6397C350.171 49.1917 350.353 48.543 350.353 47.6937C350.353 46.863 350.171 46.2237 349.807 45.7757C349.443 45.3184 348.93 45.0897 348.267 45.0897C347.605 45.0897 347.091 45.3184 346.727 45.7757C346.363 46.2237 346.181 46.863 346.181 47.6937C346.181 48.5337 346.359 49.1777 346.713 49.6257C347.077 50.0737 347.595 50.2977 348.267 50.2977ZM358.945 44.3197V51.1377H357.839V49.9757C357.624 50.3864 357.321 50.699 356.929 50.9137C356.546 51.1284 356.112 51.2357 355.627 51.2357C354.815 51.2357 354.204 51.0117 353.793 50.5637C353.382 50.1064 353.177 49.4344 353.177 48.5477V44.3197H354.311V48.5197C354.311 49.1264 354.432 49.5744 354.675 49.8637C354.918 50.1437 355.3 50.2837 355.823 50.2837C356.42 50.2837 356.901 50.0924 357.265 49.7097C357.629 49.3177 357.811 48.8044 357.811 48.1697V44.3197H358.945Z" fill="#363636"/>
<g filter="url(#filter0_d_10642_4)">
<rect x="23" y="18.2163" width="41.7571" height="41.7571" rx="20.8785" fill="#E3B873"/>
<rect x="19" y="14.2163" width="49.7571" height="49.7571" rx="24.8785" stroke="white" stroke-width="8"/>
</g>
<path d="M40.5727 45.27C39.6007 45.27 38.7187 45.012 37.9267 44.496C37.1347 43.98 36.5047 43.23 36.0367 42.246C35.5807 41.25 35.3527 40.068 35.3527 38.7C35.3527 37.332 35.5807 36.156 36.0367 35.172C36.5047 34.176 37.1347 33.42 37.9267 32.904C38.7187 32.388 39.6007 32.13 40.5727 32.13C41.5447 32.13 42.4267 32.388 43.2187 32.904C44.0107 33.42 44.6347 34.176 45.0907 35.172C45.5587 36.156 45.7927 37.332 45.7927 38.7C45.7927 40.068 45.5587 41.25 45.0907 42.246C44.6347 43.23 44.0107 43.98 43.2187 44.496C42.4267 45.012 41.5447 45.27 40.5727 45.27ZM40.5727 44.91C41.9527 44.91 42.6427 42.84 42.6427 38.7C42.6427 34.56 41.9527 32.49 40.5727 32.49C39.1927 32.49 38.5027 34.56 38.5027 38.7C38.5027 42.84 39.1927 44.91 40.5727 44.91ZM47.8613 45V44.73L49.1213 44.37V34.488L47.2313 35.82L46.8713 35.37L50.1473 32.4H52.0913V44.37L53.3513 44.73V45H47.8613Z" fill="white"/>
<defs>
<filter id="filter0_d_10642_4" x="0" y="0.216309" width="87.757" height="87.7571" filterUnits="userSpaceOnUse" color-interpolation-filters="sRGB">
<feFlood flood-opacity="0" result="BackgroundImageFix"/>
<feColorMatrix in="SourceAlpha" type="matrix" values="0 0 0 0 0 0 0 0 0 0 0 0 0 0 0 0 0 0 127 0" result="hardAlpha"/>
<feOffset dy="5"/>
<feGaussianBlur stdDeviation="7.5"/>
<feColorMatrix type="matrix" values="0 0 0 0 0.890196 0 0 0 0 0.721569 0 0 0 0 0.45098 0 0 0 0.15 0"/>
<feBlend mode="normal" in2="BackgroundImageFix" result="effect1_dropShadow_10642_4"/>
<feBlend mode="normal" in="SourceGraphic" in2="effect1_dropShadow_10642_4" result="shape"/>
</filter>
</defs>
</svg>
