<svg width="169" height="88" viewBox="0 0 169 88" fill="none" xmlns="http://www.w3.org/2000/svg">
<g filter="url(#filter0_d_10642_3)">
<rect x="23" y="18" width="41.7571" height="41.7571" rx="20.8785" fill="#E3B873"/>
<rect x="19" y="14" width="49.7571" height="49.7571" rx="24.8785" stroke="white" stroke-width="8"/>
</g>
<path d="M38.4708 44.7517C37.4988 44.7517 36.6168 44.4937 35.8248 43.9777C35.0328 43.4617 34.4028 42.7117 33.9348 41.7277C33.4788 40.7317 33.2508 39.5497 33.2508 38.1817C33.2508 36.8137 33.4788 35.6377 33.9348 34.6537C34.4028 33.6577 35.0328 32.9017 35.8248 32.3857C36.6168 31.8697 37.4988 31.6117 38.4708 31.6117C39.4428 31.6117 40.3248 31.8697 41.1168 32.3857C41.9088 32.9017 42.5328 33.6577 42.9888 34.6537C43.4568 35.6377 43.6908 36.8137 43.6908 38.1817C43.6908 39.5497 43.4568 40.7317 42.9888 41.7277C42.5328 42.7117 41.9088 43.4617 41.1168 43.9777C40.3248 44.4937 39.4428 44.7517 38.4708 44.7517ZM38.4708 44.3917C39.8508 44.3917 40.5408 42.3217 40.5408 38.1817C40.5408 34.0417 39.8508 31.9717 38.4708 31.9717C37.0908 31.9717 36.4008 34.0417 36.4008 38.1817C36.4008 42.3217 37.0908 44.3917 38.4708 44.3917ZM45.0394 43.6717C45.0394 42.9637 45.1774 42.3217 45.4534 41.7457C45.7414 41.1577 46.0894 40.6477 46.4974 40.2157C46.9054 39.7837 47.4394 39.2737 48.0994 38.6857C48.7114 38.1457 49.1914 37.6957 49.5394 37.3357C49.8874 36.9637 50.1814 36.5497 50.4214 36.0937C50.6614 35.6257 50.7814 35.1217 50.7814 34.5817C50.7814 33.7897 50.5894 33.1717 50.2054 32.7277C49.8214 32.2837 49.3234 32.0617 48.7114 32.0617C48.3634 32.0617 48.0094 32.1097 47.6494 32.2057L47.2714 32.3317V35.2117L47.0374 35.2657C46.8454 35.2897 46.6834 35.3017 46.5514 35.3017C46.1434 35.3017 45.8134 35.1817 45.5614 34.9417C45.3214 34.6897 45.2014 34.3597 45.2014 33.9517C45.2014 33.5677 45.3454 33.1957 45.6334 32.8357C45.9334 32.4757 46.3714 32.1817 46.9474 31.9537C47.5354 31.7257 48.2434 31.6117 49.0714 31.6117C50.6914 31.6117 51.8914 31.9357 52.6714 32.5837C53.4514 33.2317 53.8414 34.1377 53.8414 35.3017C53.8414 36.0337 53.6494 36.6637 53.2654 37.1917C52.8934 37.7197 52.4314 38.1577 51.8794 38.5057C51.3394 38.8537 50.6134 39.2497 49.7014 39.6937C48.9334 40.0657 48.3094 40.3957 47.8294 40.6837C47.3614 40.9597 46.9234 41.2957 46.5154 41.6917C46.1194 42.0877 45.8374 42.5377 45.6694 43.0417H52.3294C52.4134 42.3937 52.6174 41.8537 52.9414 41.4217C53.0734 41.2177 53.2294 41.0377 53.4094 40.8817H53.9494V44.4817H45.0394V43.6717Z" fill="white"/>
<path d="M82.3649 31.7494H88.4689V32.7154H83.4989V36.1174H88.1889V37.0834H83.4989V41.6194H82.3649V31.7494ZM93.7171 35.6134L92.9751 35.6834C92.2751 35.7487 91.7664 35.9681 91.4491 36.3414C91.1411 36.7147 90.9871 37.1767 90.9871 37.7274V41.6194H89.8531V34.8014H90.9591V35.9914C91.3418 35.1981 92.0931 34.7547 93.2131 34.6614L93.6191 34.6334L93.7171 35.6134ZM100.364 38.3854H95.3799C95.4173 39.1787 95.6319 39.7807 96.0239 40.1914C96.4159 40.5927 96.9713 40.7934 97.6899 40.7934C98.4833 40.7934 99.2113 40.5227 99.8739 39.9814L100.252 40.8074C99.9533 41.0874 99.5706 41.3114 99.1039 41.4794C98.6373 41.6381 98.1613 41.7174 97.6759 41.7174C96.6119 41.7174 95.7719 41.4047 95.1559 40.7794C94.5493 40.1541 94.2459 39.2907 94.2459 38.1894C94.2459 37.4894 94.3813 36.8734 94.6519 36.3414C94.9226 35.8001 95.3006 35.3801 95.7859 35.0814C96.2806 34.7827 96.8406 34.6334 97.4659 34.6334C98.3713 34.6334 99.0806 34.9321 99.5939 35.5294C100.107 36.1174 100.364 36.9294 100.364 37.9654V38.3854ZM97.4799 35.5154C96.8826 35.5154 96.4019 35.7021 96.0379 36.0754C95.6833 36.4487 95.4733 36.9761 95.4079 37.6574H99.3699C99.3513 36.9667 99.1786 36.4394 98.8519 36.0754C98.5253 35.7021 98.0679 35.5154 97.4799 35.5154ZM107.747 38.3854H102.763C102.8 39.1787 103.015 39.7807 103.407 40.1914C103.799 40.5927 104.354 40.7934 105.073 40.7934C105.866 40.7934 106.594 40.5227 107.257 39.9814L107.635 40.8074C107.336 41.0874 106.953 41.3114 106.487 41.4794C106.02 41.6381 105.544 41.7174 105.059 41.7174C103.995 41.7174 103.155 41.4047 102.539 40.7794C101.932 40.1541 101.629 39.2907 101.629 38.1894C101.629 37.4894 101.764 36.8734 102.035 36.3414C102.305 35.8001 102.683 35.3801 103.169 35.0814C103.663 34.7827 104.223 34.6334 104.849 34.6334C105.754 34.6334 106.463 34.9321 106.977 35.5294C107.49 36.1174 107.747 36.9294 107.747 37.9654V38.3854ZM104.863 35.5154C104.265 35.5154 103.785 35.7021 103.421 36.0754C103.066 36.4487 102.856 36.9761 102.791 37.6574H106.753C106.734 36.9667 106.561 36.4394 106.235 36.0754C105.908 35.7021 105.451 35.5154 104.863 35.5154ZM120.615 34.6334C122.127 34.6334 122.883 35.5341 122.883 37.3354V41.6194H121.749V37.3914C121.749 36.7661 121.637 36.3087 121.413 36.0194C121.198 35.7301 120.848 35.5854 120.363 35.5854C119.794 35.5854 119.346 35.7767 119.019 36.1594C118.692 36.5421 118.529 37.0647 118.529 37.7274V41.6194H117.395V37.3914C117.395 36.7567 117.283 36.2994 117.059 36.0194C116.835 35.7301 116.48 35.5854 115.995 35.5854C115.426 35.5854 114.978 35.7767 114.651 36.1594C114.324 36.5421 114.161 37.0647 114.161 37.7274V41.6194H113.027V34.8014H114.147V35.8794C114.352 35.4781 114.637 35.1701 115.001 34.9554C115.365 34.7407 115.785 34.6334 116.261 34.6334C117.316 34.6334 118.011 35.0814 118.347 35.9774C118.543 35.5574 118.842 35.2307 119.243 34.9974C119.644 34.7547 120.102 34.6334 120.615 34.6334ZM130.661 38.3854H125.677C125.714 39.1787 125.929 39.7807 126.321 40.1914C126.713 40.5927 127.268 40.7934 127.987 40.7934C128.78 40.7934 129.508 40.5227 130.171 39.9814L130.549 40.8074C130.25 41.0874 129.867 41.3114 129.401 41.4794C128.934 41.6381 128.458 41.7174 127.973 41.7174C126.909 41.7174 126.069 41.4047 125.453 40.7794C124.846 40.1541 124.543 39.2907 124.543 38.1894C124.543 37.4894 124.678 36.8734 124.949 36.3414C125.219 35.8001 125.597 35.3801 126.083 35.0814C126.577 34.7827 127.137 34.6334 127.763 34.6334C128.668 34.6334 129.377 34.9321 129.891 35.5294C130.404 36.1174 130.661 36.9294 130.661 37.9654V38.3854ZM127.777 35.5154C127.179 35.5154 126.699 35.7021 126.335 36.0754C125.98 36.4487 125.77 36.9761 125.705 37.6574H129.667C129.648 36.9667 129.475 36.4394 129.149 36.0754C128.822 35.7021 128.365 35.5154 127.777 35.5154ZM135.287 40.8074C135.492 40.8074 135.697 40.7934 135.903 40.7654L135.847 41.6614C135.632 41.6987 135.399 41.7174 135.147 41.7174C134.325 41.7174 133.705 41.5027 133.285 41.0734C132.874 40.6441 132.669 40.0467 132.669 39.2814V35.6974H131.339V34.8014H132.669V32.7294H133.803V34.8014H135.735V35.6974H133.803V39.1974C133.803 40.2707 134.297 40.8074 135.287 40.8074ZM142.76 38.3854H137.776C137.814 39.1787 138.028 39.7807 138.42 40.1914C138.812 40.5927 139.368 40.7934 140.086 40.7934C140.88 40.7934 141.608 40.5227 142.27 39.9814L142.648 40.8074C142.35 41.0874 141.967 41.3114 141.5 41.4794C141.034 41.6381 140.558 41.7174 140.072 41.7174C139.008 41.7174 138.168 41.4047 137.552 40.7794C136.946 40.1541 136.642 39.2907 136.642 38.1894C136.642 37.4894 136.778 36.8734 137.048 36.3414C137.319 35.8001 137.697 35.3801 138.182 35.0814C138.677 34.7827 139.237 34.6334 139.862 34.6334C140.768 34.6334 141.477 34.9321 141.99 35.5294C142.504 36.1174 142.76 36.9294 142.76 37.9654V38.3854ZM139.876 35.5154C139.279 35.5154 138.798 35.7021 138.434 36.0754C138.08 36.4487 137.87 36.9761 137.804 37.6574H141.766C141.748 36.9667 141.575 36.4394 141.248 36.0754C140.922 35.7021 140.464 35.5154 139.876 35.5154ZM148.295 35.6134L147.553 35.6834C146.853 35.7487 146.345 35.9681 146.027 36.3414C145.719 36.7147 145.565 37.1767 145.565 37.7274V41.6194H144.431V34.8014H145.537V35.9914C145.92 35.1981 146.671 34.7547 147.791 34.6614L148.197 34.6334L148.295 35.6134ZM149.367 34.8014H150.501V41.6194H149.367V34.8014ZM150.627 31.8474V33.1214H149.255V31.8474H150.627ZM156.051 34.6334C157.684 34.6334 158.501 35.5341 158.501 37.3354V41.6194H157.367V37.4054C157.367 36.7707 157.241 36.3087 156.989 36.0194C156.746 35.7301 156.354 35.5854 155.813 35.5854C155.187 35.5854 154.688 35.7767 154.315 36.1594C153.941 36.5421 153.755 37.0601 153.755 37.7134V41.6194H152.621V34.8014H153.741V35.9214C153.965 35.5014 154.277 35.1841 154.679 34.9694C155.08 34.7454 155.537 34.6334 156.051 34.6334ZM166.682 34.8014V41.1574C166.682 42.1747 166.42 42.9401 165.898 43.4534C165.375 43.9761 164.6 44.2374 163.574 44.2374C162.379 44.2374 161.376 43.9294 160.564 43.3134L160.942 42.4734C161.399 42.7721 161.828 42.9867 162.23 43.1174C162.631 43.2481 163.079 43.3134 163.574 43.3134C164.227 43.3134 164.722 43.1361 165.058 42.7814C165.394 42.4361 165.562 41.9274 165.562 41.2554V40.0514C165.366 40.4901 165.062 40.8261 164.652 41.0594C164.25 41.2927 163.774 41.4094 163.224 41.4094C162.626 41.4094 162.094 41.2694 161.628 40.9894C161.17 40.7094 160.811 40.3127 160.55 39.7994C160.298 39.2861 160.172 38.6934 160.172 38.0214C160.172 37.3494 160.298 36.7567 160.55 36.2434C160.811 35.7301 161.17 35.3334 161.628 35.0534C162.094 34.7734 162.626 34.6334 163.224 34.6334C163.765 34.6334 164.236 34.7501 164.638 34.9834C165.039 35.2167 165.342 35.5481 165.548 35.9774V34.8014H166.682ZM163.448 40.4714C164.101 40.4714 164.614 40.2567 164.988 39.8274C165.361 39.3887 165.548 38.7867 165.548 38.0214C165.548 37.2654 165.361 36.6727 164.988 36.2434C164.624 35.8047 164.11 35.5854 163.448 35.5854C162.785 35.5854 162.262 35.8047 161.88 36.2434C161.506 36.6727 161.32 37.2654 161.32 38.0214C161.32 38.7867 161.506 39.3887 161.88 39.8274C162.262 40.2567 162.785 40.4714 163.448 40.4714Z" fill="#363636"/>
<defs>
<filter id="filter0_d_10642_3" x="0" y="0" width="87.757" height="87.7571" filterUnits="userSpaceOnUse" color-interpolation-filters="sRGB">
<feFlood flood-opacity="0" result="BackgroundImageFix"/>
<feColorMatrix in="SourceAlpha" type="matrix" values="0 0 0 0 0 0 0 0 0 0 0 0 0 0 0 0 0 0 127 0" result="hardAlpha"/>
<feOffset dy="5"/>
<feGaussianBlur stdDeviation="7.5"/>
<feColorMatrix type="matrix" values="0 0 0 0 0.890196 0 0 0 0 0.721569 0 0 0 0 0.45098 0 0 0 0.15 0"/>
<feBlend mode="normal" in2="BackgroundImageFix" result="effect1_dropShadow_10642_3"/>
<feBlend mode="normal" in="SourceGraphic" in2="effect1_dropShadow_10642_3" result="shape"/>
</filter>
</defs>
</svg>
