<svg width="186" height="88" viewBox="0 0 186 88" fill="none" xmlns="http://www.w3.org/2000/svg">
<g filter="url(#filter0_d_10642_2)">
<rect x="23" y="18" width="41.7571" height="41.7571" rx="20.8785" fill="#E3B873"/>
<rect x="19" y="14" width="49.7571" height="49.7571" rx="24.8785" stroke="white" stroke-width="8"/>
</g>
<path d="M38.2361 44.1323C37.2641 44.1323 36.3821 43.8743 35.5901 43.3583C34.7981 42.8423 34.1681 42.0923 33.7001 41.1083C33.2441 40.1123 33.0161 38.9303 33.0161 37.5623C33.0161 36.1943 33.2441 35.0183 33.7001 34.0343C34.1681 33.0383 34.7981 32.2823 35.5901 31.7663C36.3821 31.2503 37.2641 30.9923 38.2361 30.9923C39.2081 30.9923 40.0901 31.2503 40.8821 31.7663C41.6741 32.2823 42.2981 33.0383 42.7541 34.0343C43.2221 35.0183 43.4561 36.1943 43.4561 37.5623C43.4561 38.9303 43.2221 40.1123 42.7541 41.1083C42.2981 42.0923 41.6741 42.8423 40.8821 43.3583C40.0901 43.8743 39.2081 44.1323 38.2361 44.1323ZM38.2361 43.7723C39.6161 43.7723 40.3061 41.7023 40.3061 37.5623C40.3061 33.4223 39.6161 31.3523 38.2361 31.3523C36.8561 31.3523 36.1661 33.4223 36.1661 37.5623C36.1661 41.7023 36.8561 43.7723 38.2361 43.7723ZM48.5846 44.1323C47.7566 44.1323 47.0486 44.0183 46.4606 43.7903C45.8846 43.5623 45.4466 43.2683 45.1466 42.9083C44.8586 42.5483 44.7146 42.1763 44.7146 41.7923C44.7146 41.3843 44.8346 41.0603 45.0746 40.8203C45.3266 40.5683 45.6566 40.4423 46.0646 40.4423C46.1606 40.4423 46.2566 40.4543 46.3526 40.4783C46.4486 40.4903 46.5146 40.4963 46.5506 40.4963L46.7846 40.5323V43.4123C46.7966 43.4123 46.9226 43.4603 47.1626 43.5563C47.4746 43.6403 47.8286 43.6823 48.2246 43.6823C49.0646 43.6823 49.7066 43.4303 50.1506 42.9263C50.6066 42.4103 50.8346 41.6423 50.8346 40.6223C50.8346 39.5783 50.6126 38.7923 50.1686 38.2643C49.7366 37.7363 49.1486 37.4723 48.4046 37.4723H47.5046V37.0223H48.4046C48.9446 37.0223 49.3946 36.7823 49.7546 36.3023C50.1146 35.8223 50.2946 35.1323 50.2946 34.2323C50.2946 33.3323 50.1086 32.6423 49.7366 32.1623C49.3646 31.6823 48.8906 31.4423 48.3146 31.4423C48.0026 31.4423 47.7026 31.4903 47.4146 31.5863C47.3786 31.5983 47.2586 31.6403 47.0546 31.7123V34.5923L46.8206 34.6463C46.6286 34.6703 46.4666 34.6823 46.3346 34.6823C45.9266 34.6823 45.5966 34.5623 45.3446 34.3223C45.1046 34.0703 44.9846 33.7403 44.9846 33.3323C44.9846 32.9603 45.1286 32.5943 45.4166 32.2343C45.7046 31.8743 46.1246 31.5803 46.6766 31.3523C47.2406 31.1123 47.9066 30.9923 48.6746 30.9923C49.6826 30.9923 50.5346 31.1423 51.2306 31.4423C51.9386 31.7303 52.4666 32.1203 52.8146 32.6123C53.1746 33.1043 53.3546 33.6443 53.3546 34.2323C53.3546 34.9163 53.1806 35.4623 52.8326 35.8703C52.4846 36.2663 52.0286 36.5843 51.4646 36.8243C50.9126 37.0403 50.2826 37.1663 49.5746 37.2023V37.2923C50.3666 37.3283 51.0866 37.4663 51.7346 37.7063C53.1746 38.2823 53.8946 39.2543 53.8946 40.6223C53.8946 41.6783 53.4566 42.5303 52.5806 43.1783C51.7166 43.8143 50.3846 44.1323 48.5846 44.1323Z" fill="white"/>
<path d="M80.218 33.13H86.322V34.096H81.352V37.498H86.042V38.464H81.352V43H80.218V33.13ZM91.5703 36.994L90.8283 37.064C90.1283 37.1293 89.6196 37.3487 89.3023 37.722C88.9943 38.0953 88.8403 38.5573 88.8403 39.108V43H87.7063V36.182H88.8123V37.372C89.1949 36.5787 89.9463 36.1353 91.0663 36.042L91.4723 36.014L91.5703 36.994ZM98.2171 39.766H93.2331C93.2704 40.5593 93.4851 41.1613 93.8771 41.572C94.2691 41.9733 94.8244 42.174 95.5431 42.174C96.3364 42.174 97.0644 41.9033 97.7271 41.362L98.1051 42.188C97.8064 42.468 97.4237 42.692 96.9571 42.86C96.4904 43.0187 96.0144 43.098 95.5291 43.098C94.4651 43.098 93.6251 42.7853 93.0091 42.16C92.4024 41.5347 92.0991 40.6713 92.0991 39.57C92.0991 38.87 92.2344 38.254 92.5051 37.722C92.7757 37.1807 93.1537 36.7607 93.6391 36.462C94.1337 36.1633 94.6937 36.014 95.3191 36.014C96.2244 36.014 96.9337 36.3127 97.4471 36.91C97.9604 37.498 98.2171 38.31 98.2171 39.346V39.766ZM95.3331 36.896C94.7357 36.896 94.2551 37.0827 93.8911 37.456C93.5364 37.8293 93.3264 38.3567 93.2611 39.038H97.2231C97.2044 38.3473 97.0317 37.82 96.7051 37.456C96.3784 37.0827 95.9211 36.896 95.3331 36.896ZM105.6 39.766H100.616C100.653 40.5593 100.868 41.1613 101.26 41.572C101.652 41.9733 102.207 42.174 102.926 42.174C103.719 42.174 104.447 41.9033 105.11 41.362L105.488 42.188C105.189 42.468 104.807 42.692 104.34 42.86C103.873 43.0187 103.397 43.098 102.912 43.098C101.848 43.098 101.008 42.7853 100.392 42.16C99.7852 41.5347 99.4819 40.6713 99.4819 39.57C99.4819 38.87 99.6172 38.254 99.8879 37.722C100.159 37.1807 100.537 36.7607 101.022 36.462C101.517 36.1633 102.077 36.014 102.702 36.014C103.607 36.014 104.317 36.3127 104.83 36.91C105.343 37.498 105.6 38.31 105.6 39.346V39.766ZM102.716 36.896C102.119 36.896 101.638 37.0827 101.274 37.456C100.919 37.8293 100.709 38.3567 100.644 39.038H104.606C104.587 38.3473 104.415 37.82 104.088 37.456C103.761 37.0827 103.304 36.896 102.716 36.896ZM113.764 43.098C113.092 43.098 112.509 42.9533 112.014 42.664C111.519 42.3747 111.137 41.9687 110.866 41.446C110.605 40.914 110.474 40.2933 110.474 39.584C110.474 38.8747 110.609 38.254 110.88 37.722C111.16 37.1807 111.547 36.7607 112.042 36.462C112.546 36.1633 113.134 36.014 113.806 36.014C114.263 36.014 114.711 36.098 115.15 36.266C115.589 36.4247 115.943 36.6393 116.214 36.91L115.836 37.75C115.192 37.2273 114.539 36.966 113.876 36.966C113.176 36.966 112.63 37.1947 112.238 37.652C111.846 38.1093 111.65 38.7533 111.65 39.584C111.65 40.4053 111.846 41.04 112.238 41.488C112.63 41.936 113.176 42.16 113.876 42.16C114.539 42.16 115.192 41.8987 115.836 41.376L116.214 42.216C115.925 42.4867 115.561 42.7013 115.122 42.86C114.683 43.0187 114.231 43.098 113.764 43.098ZM120.407 43.098C119.763 43.098 119.194 42.9533 118.699 42.664C118.214 42.3747 117.836 41.964 117.565 41.432C117.304 40.8907 117.173 40.2653 117.173 39.556C117.173 38.8467 117.304 38.226 117.565 37.694C117.836 37.1527 118.214 36.7373 118.699 36.448C119.194 36.1587 119.763 36.014 120.407 36.014C121.051 36.014 121.621 36.1587 122.115 36.448C122.61 36.7373 122.988 37.1527 123.249 37.694C123.52 38.226 123.655 38.8467 123.655 39.556C123.655 40.2653 123.52 40.8907 123.249 41.432C122.988 41.964 122.61 42.3747 122.115 42.664C121.621 42.9533 121.051 43.098 120.407 43.098ZM120.407 42.16C121.079 42.16 121.593 41.9407 121.947 41.502C122.311 41.054 122.493 40.4053 122.493 39.556C122.493 38.7253 122.311 38.086 121.947 37.638C121.583 37.1807 121.07 36.952 120.407 36.952C119.745 36.952 119.231 37.1807 118.867 37.638C118.503 38.086 118.321 38.7253 118.321 39.556C118.321 40.396 118.499 41.04 118.853 41.488C119.217 41.936 119.735 42.16 120.407 42.16ZM128.775 36.014C130.408 36.014 131.225 36.9147 131.225 38.716V43H130.091V38.786C130.091 38.1513 129.965 37.6893 129.713 37.4C129.47 37.1107 129.078 36.966 128.537 36.966C127.912 36.966 127.412 37.1573 127.039 37.54C126.666 37.9227 126.479 38.4407 126.479 39.094V43H125.345V36.182H126.465V37.302C126.689 36.882 127.002 36.5647 127.403 36.35C127.804 36.126 128.262 36.014 128.775 36.014ZM135.612 43.098C134.464 43.098 133.554 42.804 132.882 42.216L133.26 41.376C133.624 41.6653 133.993 41.8753 134.366 42.006C134.749 42.1273 135.178 42.188 135.654 42.188C136.158 42.188 136.541 42.104 136.802 41.936C137.073 41.7587 137.208 41.5067 137.208 41.18C137.208 40.9093 137.119 40.6947 136.942 40.536C136.765 40.3773 136.471 40.2513 136.06 40.158L134.912 39.892C134.333 39.7613 133.89 39.5373 133.582 39.22C133.274 38.9027 133.12 38.5107 133.12 38.044C133.12 37.4373 133.358 36.9473 133.834 36.574C134.31 36.2007 134.945 36.014 135.738 36.014C136.214 36.014 136.667 36.0933 137.096 36.252C137.525 36.4013 137.885 36.6207 138.174 36.91L137.796 37.736C137.171 37.204 136.485 36.938 135.738 36.938C135.262 36.938 134.889 37.0313 134.618 37.218C134.357 37.3953 134.226 37.6473 134.226 37.974C134.226 38.2447 134.305 38.464 134.464 38.632C134.632 38.7907 134.898 38.912 135.262 38.996L136.424 39.276C137.059 39.4253 137.53 39.654 137.838 39.962C138.146 40.2607 138.3 40.6527 138.3 41.138C138.3 41.7353 138.057 42.2113 137.572 42.566C137.096 42.9207 136.443 43.098 135.612 43.098ZM145.769 36.182V43H144.663V41.838C144.448 42.2487 144.145 42.5613 143.753 42.776C143.37 42.9907 142.936 43.098 142.451 43.098C141.639 43.098 141.027 42.874 140.617 42.426C140.206 41.9687 140.001 41.2967 140.001 40.41V36.182H141.135V40.382C141.135 40.9887 141.256 41.4367 141.499 41.726C141.741 42.006 142.124 42.146 142.647 42.146C143.244 42.146 143.725 41.9547 144.089 41.572C144.453 41.18 144.635 40.6667 144.635 40.032V36.182H145.769ZM147.876 33.13H149.01V43H147.876V33.13ZM154.126 42.188C154.331 42.188 154.537 42.174 154.742 42.146L154.686 43.042C154.471 43.0793 154.238 43.098 153.986 43.098C153.165 43.098 152.544 42.8833 152.124 42.454C151.713 42.0247 151.508 41.4273 151.508 40.662V37.078H150.178V36.182H151.508V34.11H152.642V36.182H154.574V37.078H152.642V40.578C152.642 41.6513 153.137 42.188 154.126 42.188ZM158.66 36.014C159.528 36.014 160.172 36.238 160.592 36.686C161.021 37.1247 161.236 37.7967 161.236 38.702V43H160.13V41.838C159.953 42.2393 159.682 42.552 159.318 42.776C158.954 42.9907 158.534 43.098 158.058 43.098C157.619 43.098 157.213 43.0093 156.84 42.832C156.476 42.6547 156.187 42.4073 155.972 42.09C155.757 41.7727 155.65 41.4227 155.65 41.04C155.65 40.5267 155.781 40.13 156.042 39.85C156.303 39.5607 156.733 39.3553 157.33 39.234C157.927 39.1033 158.758 39.038 159.822 39.038H160.13V38.576C160.13 38.0067 160.013 37.596 159.78 37.344C159.547 37.0827 159.169 36.952 158.646 36.952C157.862 36.952 157.083 37.1947 156.308 37.68L155.93 36.854C156.285 36.602 156.709 36.4013 157.204 36.252C157.708 36.0933 158.193 36.014 158.66 36.014ZM158.212 42.202C158.772 42.202 159.229 42.0153 159.584 41.642C159.948 41.2593 160.13 40.7693 160.13 40.172V39.766H159.878C159.057 39.766 158.431 39.8033 158.002 39.878C157.573 39.9433 157.265 40.06 157.078 40.228C156.901 40.3867 156.812 40.6247 156.812 40.942C156.812 41.306 156.943 41.6093 157.204 41.852C157.475 42.0853 157.811 42.202 158.212 42.202ZM166.308 42.188C166.513 42.188 166.718 42.174 166.924 42.146L166.868 43.042C166.653 43.0793 166.42 43.098 166.168 43.098C165.346 43.098 164.726 42.8833 164.306 42.454C163.895 42.0247 163.69 41.4273 163.69 40.662V37.078H162.36V36.182H163.69V34.11H164.824V36.182H166.756V37.078H164.824V40.578C164.824 41.6513 165.318 42.188 166.308 42.188ZM168.07 36.182H169.204V43H168.07V36.182ZM169.33 33.228V34.502H167.958V33.228H169.33ZM174.151 43.098C173.507 43.098 172.938 42.9533 172.443 42.664C171.958 42.3747 171.58 41.964 171.309 41.432C171.048 40.8907 170.917 40.2653 170.917 39.556C170.917 38.8467 171.048 38.226 171.309 37.694C171.58 37.1527 171.958 36.7373 172.443 36.448C172.938 36.1587 173.507 36.014 174.151 36.014C174.795 36.014 175.365 36.1587 175.859 36.448C176.354 36.7373 176.732 37.1527 176.993 37.694C177.264 38.226 177.399 38.8467 177.399 39.556C177.399 40.2653 177.264 40.8907 176.993 41.432C176.732 41.964 176.354 42.3747 175.859 42.664C175.365 42.9533 174.795 43.098 174.151 43.098ZM174.151 42.16C174.823 42.16 175.337 41.9407 175.691 41.502C176.055 41.054 176.237 40.4053 176.237 39.556C176.237 38.7253 176.055 38.086 175.691 37.638C175.327 37.1807 174.814 36.952 174.151 36.952C173.489 36.952 172.975 37.1807 172.611 37.638C172.247 38.086 172.065 38.7253 172.065 39.556C172.065 40.396 172.243 41.04 172.597 41.488C172.961 41.936 173.479 42.16 174.151 42.16ZM182.519 36.014C184.152 36.014 184.969 36.9147 184.969 38.716V43H183.835V38.786C183.835 38.1513 183.709 37.6893 183.457 37.4C183.214 37.1107 182.822 36.966 182.281 36.966C181.656 36.966 181.156 37.1573 180.783 37.54C180.41 37.9227 180.223 38.4407 180.223 39.094V43H179.089V36.182H180.209V37.302C180.433 36.882 180.746 36.5647 181.147 36.35C181.548 36.126 182.006 36.014 182.519 36.014Z" fill="#363636"/>
<defs>
<filter id="filter0_d_10642_2" x="0" y="0" width="87.757" height="87.7571" filterUnits="userSpaceOnUse" color-interpolation-filters="sRGB">
<feFlood flood-opacity="0" result="BackgroundImageFix"/>
<feColorMatrix in="SourceAlpha" type="matrix" values="0 0 0 0 0 0 0 0 0 0 0 0 0 0 0 0 0 0 127 0" result="hardAlpha"/>
<feOffset dy="5"/>
<feGaussianBlur stdDeviation="7.5"/>
<feColorMatrix type="matrix" values="0 0 0 0 0.890196 0 0 0 0 0.721569 0 0 0 0 0.45098 0 0 0 0.15 0"/>
<feBlend mode="normal" in2="BackgroundImageFix" result="effect1_dropShadow_10642_2"/>
<feBlend mode="normal" in="SourceGraphic" in2="effect1_dropShadow_10642_2" result="shape"/>
</filter>
</defs>
</svg>
